<svg width="239" height="55" viewBox="0 0 239 55" fill="none" xmlns="http://www.w3.org/2000/svg">
<path d="M12.7319 2.016C13.1479 2.224 13.3879 2.552 13.4519 3C13.5319 3.448 13.4199 3.856 13.1159 4.224C12.9079 4.512 12.6359 4.672 12.2999 4.704C11.9799 4.736 11.6519 4.672 11.3159 4.512C10.9319 4.336 10.5239 4.2 10.0919 4.104C9.67588 4.008 9.23588 3.96 8.77188 3.96C7.90788 3.96 7.13188 4.096 6.44388 4.368C5.77188 4.64 5.19588 5.032 4.71588 5.544C4.23588 6.04 3.86788 6.632 3.61188 7.32C3.37188 8.008 3.25188 8.768 3.25188 9.6C3.25188 10.576 3.38788 11.424 3.65988 12.144C3.94788 12.864 4.33988 13.464 4.83588 13.944C5.33188 14.424 5.91588 14.784 6.58788 15.024C7.25988 15.248 7.98788 15.36 8.77188 15.36C9.20388 15.36 9.63588 15.32 10.0679 15.24C10.4999 15.16 10.9159 15.016 11.3159 14.808C11.6519 14.648 11.9799 14.592 12.2999 14.64C12.6359 14.688 12.9159 14.856 13.1399 15.144C13.4599 15.544 13.5719 15.96 13.4759 16.392C13.3959 16.808 13.1559 17.112 12.7559 17.304C12.3399 17.512 11.9079 17.688 11.4599 17.832C11.0279 17.96 10.5879 18.056 10.1399 18.12C9.69188 18.2 9.23588 18.24 8.77188 18.24C7.61988 18.24 6.52388 18.056 5.48388 17.688C4.45988 17.32 3.53988 16.776 2.72388 16.056C1.92388 15.336 1.29188 14.44 0.827875 13.368C0.363875 12.28 0.131875 11.024 0.131875 9.6C0.131875 8.368 0.339875 7.232 0.755875 6.192C1.18788 5.152 1.78788 4.256 2.55588 3.504C3.33988 2.736 4.25988 2.144 5.31588 1.728C6.37188 1.296 7.52388 1.08 8.77188 1.08C9.47588 1.08 10.1639 1.16 10.8359 1.32C11.5079 1.48 12.1399 1.712 12.7319 2.016ZM17.2188 18C16.8028 18 16.4588 17.864 16.1868 17.592C15.9148 17.304 15.7788 16.952 15.7788 16.536V6.624C15.7788 6.208 15.9148 5.864 16.1868 5.592C16.4588 5.304 16.8028 5.16 17.2188 5.16C17.6348 5.16 17.9788 5.304 18.2508 5.592C18.5228 5.864 18.6588 6.208 18.6588 6.624V8.88L18.4908 7.272C18.6668 6.888 18.8908 6.552 19.1628 6.264C19.4508 5.96 19.7708 5.712 20.1228 5.52C20.4748 5.312 20.8508 5.16 21.2508 5.064C21.6508 4.968 22.0508 4.92 22.4508 4.92C22.9308 4.92 23.3308 5.056 23.6508 5.328C23.9868 5.6 24.1548 5.92 24.1548 6.288C24.1548 6.816 24.0188 7.2 23.7468 7.44C23.4748 7.664 23.1788 7.776 22.8588 7.776C22.5548 7.776 22.2748 7.72 22.0188 7.608C21.7788 7.496 21.4988 7.44 21.1788 7.44C20.8908 7.44 20.5948 7.512 20.2908 7.656C20.0028 7.784 19.7308 7.992 19.4748 8.28C19.2348 8.568 19.0348 8.928 18.8748 9.36C18.7308 9.776 18.6588 10.272 18.6588 10.848V16.536C18.6588 16.952 18.5228 17.304 18.2508 17.592C17.9788 17.864 17.6348 18 17.2188 18ZM31.6939 18.24C30.3339 18.24 29.1499 17.96 28.1419 17.4C27.1499 16.824 26.3819 16.048 25.8379 15.072C25.3099 14.096 25.0459 12.992 25.0459 11.76C25.0459 10.32 25.3339 9.096 25.9099 8.088C26.5019 7.064 27.2699 6.28 28.2139 5.736C29.1579 5.192 30.1579 4.92 31.2139 4.92C32.0299 4.92 32.7979 5.088 33.5179 5.424C34.2539 5.76 34.9019 6.224 35.4619 6.816C36.0219 7.392 36.4619 8.064 36.7819 8.832C37.1179 9.6 37.2859 10.416 37.2859 11.28C37.2699 11.664 37.1179 11.976 36.8299 12.216C36.5419 12.456 36.2059 12.576 35.8219 12.576H26.6539L25.9339 10.176H34.7419L34.2139 10.656V10.008C34.1819 9.544 34.0139 9.128 33.7099 8.76C33.4219 8.392 33.0539 8.104 32.6059 7.896C32.1739 7.672 31.7099 7.56 31.2139 7.56C30.7339 7.56 30.2859 7.624 29.8699 7.752C29.4539 7.88 29.0939 8.096 28.7899 8.4C28.4859 8.704 28.2459 9.112 28.0699 9.624C27.8939 10.136 27.8059 10.784 27.8059 11.568C27.8059 12.432 27.9819 13.168 28.3339 13.776C28.7019 14.368 29.1659 14.824 29.7259 15.144C30.3019 15.448 30.9099 15.6 31.5499 15.6C32.1419 15.6 32.6139 15.552 32.9659 15.456C33.3179 15.36 33.5979 15.248 33.8059 15.12C34.0299 14.976 34.2299 14.856 34.4059 14.76C34.6939 14.616 34.9659 14.544 35.2219 14.544C35.5739 14.544 35.8619 14.664 36.0859 14.904C36.3259 15.144 36.4459 15.424 36.4459 15.744C36.4459 16.176 36.2219 16.568 35.7739 16.92C35.3579 17.272 34.7739 17.584 34.0219 17.856C33.2699 18.112 32.4939 18.24 31.6939 18.24ZM50.4079 4.92C50.8239 4.92 51.1679 5.056 51.4399 5.328C51.7119 5.6 51.8479 5.952 51.8479 6.384V16.536C51.8479 16.952 51.7119 17.304 51.4399 17.592C51.1679 17.864 50.8239 18 50.4079 18C49.9919 18 49.6479 17.864 49.3759 17.592C49.1039 17.304 48.9679 16.952 48.9679 16.536V15.36L49.4959 15.576C49.4959 15.784 49.3839 16.04 49.1599 16.344C48.9359 16.632 48.6319 16.92 48.2479 17.208C47.8639 17.496 47.4079 17.744 46.8799 17.952C46.3679 18.144 45.8079 18.24 45.1999 18.24C44.0959 18.24 43.0959 17.96 42.1999 17.4C41.3039 16.824 40.5919 16.04 40.0639 15.048C39.5519 14.04 39.2959 12.888 39.2959 11.592C39.2959 10.28 39.5519 9.128 40.0639 8.136C40.5919 7.128 41.2959 6.344 42.1759 5.784C43.0559 5.208 44.0319 4.92 45.1039 4.92C45.7919 4.92 46.4239 5.024 46.9999 5.232C47.5759 5.44 48.0719 5.704 48.4879 6.024C48.9199 6.344 49.2479 6.672 49.4719 7.008C49.7119 7.328 49.8319 7.6 49.8319 7.824L48.9679 8.136V6.384C48.9679 5.968 49.1039 5.624 49.3759 5.352C49.6479 5.064 49.9919 4.92 50.4079 4.92ZM45.5599 15.6C46.2639 15.6 46.8799 15.424 47.4079 15.072C47.9359 14.72 48.3439 14.24 48.6319 13.632C48.9359 13.024 49.0879 12.344 49.0879 11.592C49.0879 10.824 48.9359 10.136 48.6319 9.528C48.3439 8.92 47.9359 8.44 47.4079 8.088C46.8799 7.736 46.2639 7.56 45.5599 7.56C44.8719 7.56 44.2639 7.736 43.7359 8.088C43.2079 8.44 42.7919 8.92 42.4879 9.528C42.1999 10.136 42.0559 10.824 42.0559 11.592C42.0559 12.344 42.1999 13.024 42.4879 13.632C42.7919 14.24 43.2079 14.72 43.7359 15.072C44.2639 15.424 44.8719 15.6 45.5599 15.6ZM55.1103 5.4H60.7983C61.1823 5.4 61.5023 5.528 61.7583 5.784C62.0143 6.04 62.1423 6.36 62.1423 6.744C62.1423 7.112 62.0143 7.424 61.7583 7.68C61.5023 7.92 61.1823 8.04 60.7983 8.04H55.1103C54.7263 8.04 54.4063 7.912 54.1503 7.656C53.8943 7.4 53.7663 7.08 53.7663 6.696C53.7663 6.328 53.8943 6.024 54.1503 5.784C54.4063 5.528 54.7263 5.4 55.1103 5.4ZM57.6783 2.4C58.0943 2.4 58.4303 2.544 58.6863 2.832C58.9583 3.104 59.0943 3.448 59.0943 3.864V14.544C59.0943 14.768 59.1343 14.952 59.2143 15.096C59.3103 15.24 59.4303 15.344 59.5742 15.408C59.7343 15.472 59.9023 15.504 60.0783 15.504C60.2703 15.504 60.4463 15.472 60.6063 15.408C60.7663 15.328 60.9503 15.288 61.1583 15.288C61.3823 15.288 61.5823 15.392 61.7583 15.6C61.9503 15.808 62.0463 16.096 62.0463 16.464C62.0463 16.912 61.7983 17.28 61.3023 17.568C60.8223 17.856 60.3023 18 59.7422 18C59.4063 18 59.0303 17.976 58.6143 17.928C58.2143 17.864 57.8303 17.728 57.4623 17.52C57.1103 17.296 56.8142 16.96 56.5742 16.512C56.3343 16.064 56.2143 15.448 56.2143 14.664V3.864C56.2143 3.448 56.3503 3.104 56.6223 2.832C56.9103 2.544 57.2623 2.4 57.6783 2.4ZM70.7174 18.24C69.3574 18.24 68.1734 17.96 67.1654 17.4C66.1734 16.824 65.4054 16.048 64.8614 15.072C64.3334 14.096 64.0694 12.992 64.0694 11.76C64.0694 10.32 64.3574 9.096 64.9334 8.088C65.5254 7.064 66.2934 6.28 67.2374 5.736C68.1814 5.192 69.1814 4.92 70.2374 4.92C71.0534 4.92 71.8214 5.088 72.5414 5.424C73.2774 5.76 73.9254 6.224 74.4854 6.816C75.0454 7.392 75.4854 8.064 75.8054 8.832C76.1414 9.6 76.3094 10.416 76.3094 11.28C76.2934 11.664 76.1414 11.976 75.8534 12.216C75.5654 12.456 75.2294 12.576 74.8454 12.576H65.6774L64.9574 10.176H73.7654L73.2374 10.656V10.008C73.2054 9.544 73.0374 9.128 72.7334 8.76C72.4454 8.392 72.0774 8.104 71.6294 7.896C71.1974 7.672 70.7334 7.56 70.2374 7.56C69.7574 7.56 69.3094 7.624 68.8934 7.752C68.4774 7.88 68.1174 8.096 67.8134 8.4C67.5094 8.704 67.2694 9.112 67.0934 9.624C66.9174 10.136 66.8294 10.784 66.8294 11.568C66.8294 12.432 67.0054 13.168 67.3574 13.776C67.7254 14.368 68.1894 14.824 68.7494 15.144C69.3254 15.448 69.9334 15.6 70.5734 15.6C71.1654 15.6 71.6374 15.552 71.9894 15.456C72.3414 15.36 72.6214 15.248 72.8294 15.12C73.0534 14.976 73.2534 14.856 73.4294 14.76C73.7174 14.616 73.9894 14.544 74.2454 14.544C74.5974 14.544 74.8854 14.664 75.1094 14.904C75.3494 15.144 75.4694 15.424 75.4694 15.744C75.4694 16.176 75.2454 16.568 74.7974 16.92C74.3814 17.272 73.7974 17.584 73.0454 17.856C72.2934 18.112 71.5174 18.24 70.7174 18.24ZM96.0642 4.92C96.4802 4.92 96.8242 5.056 97.0962 5.328C97.3682 5.6 97.5042 5.952 97.5042 6.384V16.536C97.5042 16.952 97.3682 17.304 97.0962 17.592C96.8242 17.864 96.4802 18 96.0642 18C95.6482 18 95.3042 17.864 95.0322 17.592C94.7602 17.304 94.6242 16.952 94.6242 16.536V15.36L95.1522 15.576C95.1522 15.784 95.0402 16.04 94.8162 16.344C94.5922 16.632 94.2882 16.92 93.9042 17.208C93.5202 17.496 93.0642 17.744 92.5362 17.952C92.0242 18.144 91.4642 18.24 90.8562 18.24C89.7522 18.24 88.7522 17.96 87.8562 17.4C86.9602 16.824 86.2482 16.04 85.7202 15.048C85.2082 14.04 84.9522 12.888 84.9522 11.592C84.9522 10.28 85.2082 9.128 85.7202 8.136C86.2482 7.128 86.9522 6.344 87.8322 5.784C88.7122 5.208 89.6882 4.92 90.7602 4.92C91.4482 4.92 92.0802 5.024 92.6562 5.232C93.2322 5.44 93.7282 5.704 94.1442 6.024C94.5762 6.344 94.9042 6.672 95.1282 7.008C95.3682 7.328 95.4882 7.6 95.4882 7.824L94.6242 8.136V6.384C94.6242 5.968 94.7602 5.624 95.0322 5.352C95.3042 5.064 95.6482 4.92 96.0642 4.92ZM91.2162 15.6C91.9202 15.6 92.5362 15.424 93.0642 15.072C93.5922 14.72 94.0002 14.24 94.2882 13.632C94.5922 13.024 94.7442 12.344 94.7442 11.592C94.7442 10.824 94.5922 10.136 94.2882 9.528C94.0002 8.92 93.5922 8.44 93.0642 8.088C92.5362 7.736 91.9202 7.56 91.2162 7.56C90.5282 7.56 89.9202 7.736 89.3922 8.088C88.8642 8.44 88.4482 8.92 88.1442 9.528C87.8562 10.136 87.7122 10.824 87.7122 11.592C87.7122 12.344 87.8562 13.024 88.1442 13.632C88.4482 14.24 88.8642 14.72 89.3922 15.072C89.9202 15.424 90.5282 15.6 91.2162 15.6Z" fill="#29313C"/>
<path d="M114.093 4.92C115.373 4.92 116.317 5.232 116.925 5.856C117.533 6.464 117.933 7.256 118.125 8.232L117.717 8.016L117.909 7.632C118.101 7.264 118.397 6.872 118.797 6.456C119.197 6.024 119.677 5.664 120.237 5.376C120.813 5.072 121.453 4.92 122.157 4.92C123.309 4.92 124.181 5.168 124.773 5.664C125.381 6.16 125.797 6.824 126.021 7.656C126.245 8.472 126.357 9.384 126.357 10.392V16.536C126.357 16.952 126.221 17.304 125.949 17.592C125.677 17.864 125.333 18 124.917 18C124.501 18 124.157 17.864 123.885 17.592C123.613 17.304 123.477 16.952 123.477 16.536V10.392C123.477 9.864 123.413 9.392 123.285 8.976C123.157 8.544 122.925 8.2 122.589 7.944C122.253 7.688 121.773 7.56 121.149 7.56C120.541 7.56 120.021 7.688 119.589 7.944C119.157 8.2 118.829 8.544 118.605 8.976C118.397 9.392 118.293 9.864 118.293 10.392V16.536C118.293 16.952 118.157 17.304 117.885 17.592C117.613 17.864 117.269 18 116.853 18C116.437 18 116.093 17.864 115.821 17.592C115.549 17.304 115.413 16.952 115.413 16.536V10.392C115.413 9.864 115.349 9.392 115.221 8.976C115.093 8.544 114.861 8.2 114.525 7.944C114.189 7.688 113.709 7.56 113.085 7.56C112.477 7.56 111.957 7.688 111.525 7.944C111.093 8.2 110.765 8.544 110.541 8.976C110.333 9.392 110.229 9.864 110.229 10.392V16.536C110.229 16.952 110.093 17.304 109.821 17.592C109.549 17.864 109.205 18 108.789 18C108.373 18 108.029 17.864 107.757 17.592C107.485 17.304 107.349 16.952 107.349 16.536V6.624C107.349 6.208 107.485 5.864 107.757 5.592C108.029 5.304 108.373 5.16 108.789 5.16C109.205 5.16 109.549 5.304 109.821 5.592C110.093 5.864 110.229 6.208 110.229 6.624V7.656L109.869 7.584C110.013 7.312 110.213 7.024 110.469 6.72C110.725 6.4 111.037 6.104 111.405 5.832C111.773 5.56 112.181 5.344 112.629 5.184C113.077 5.008 113.565 4.92 114.093 4.92ZM135.522 18.24C134.162 18.24 132.978 17.96 131.97 17.4C130.978 16.824 130.21 16.048 129.666 15.072C129.138 14.096 128.874 12.992 128.874 11.76C128.874 10.32 129.162 9.096 129.738 8.088C130.33 7.064 131.098 6.28 132.042 5.736C132.986 5.192 133.986 4.92 135.042 4.92C135.858 4.92 136.626 5.088 137.346 5.424C138.082 5.76 138.73 6.224 139.29 6.816C139.85 7.392 140.29 8.064 140.61 8.832C140.946 9.6 141.114 10.416 141.114 11.28C141.098 11.664 140.946 11.976 140.658 12.216C140.37 12.456 140.034 12.576 139.65 12.576H130.482L129.762 10.176H138.57L138.042 10.656V10.008C138.01 9.544 137.842 9.128 137.538 8.76C137.25 8.392 136.882 8.104 136.434 7.896C136.002 7.672 135.538 7.56 135.042 7.56C134.562 7.56 134.114 7.624 133.698 7.752C133.282 7.88 132.922 8.096 132.618 8.4C132.314 8.704 132.074 9.112 131.898 9.624C131.722 10.136 131.634 10.784 131.634 11.568C131.634 12.432 131.81 13.168 132.162 13.776C132.53 14.368 132.994 14.824 133.554 15.144C134.13 15.448 134.738 15.6 135.378 15.6C135.97 15.6 136.442 15.552 136.794 15.456C137.146 15.36 137.426 15.248 137.634 15.12C137.858 14.976 138.058 14.856 138.234 14.76C138.522 14.616 138.794 14.544 139.05 14.544C139.402 14.544 139.69 14.664 139.914 14.904C140.154 15.144 140.274 15.424 140.274 15.744C140.274 16.176 140.05 16.568 139.602 16.92C139.186 17.272 138.602 17.584 137.85 17.856C137.098 18.112 136.322 18.24 135.522 18.24ZM150.374 4.92C151.654 4.92 152.598 5.232 153.206 5.856C153.814 6.464 154.214 7.256 154.406 8.232L153.998 8.016L154.19 7.632C154.382 7.264 154.678 6.872 155.078 6.456C155.478 6.024 155.958 5.664 156.518 5.376C157.094 5.072 157.734 4.92 158.438 4.92C159.59 4.92 160.462 5.168 161.054 5.664C161.662 6.16 162.078 6.824 162.302 7.656C162.526 8.472 162.638 9.384 162.638 10.392V16.536C162.638 16.952 162.502 17.304 162.23 17.592C161.958 17.864 161.614 18 161.198 18C160.782 18 160.438 17.864 160.166 17.592C159.894 17.304 159.758 16.952 159.758 16.536V10.392C159.758 9.864 159.694 9.392 159.566 8.976C159.438 8.544 159.206 8.2 158.87 7.944C158.534 7.688 158.054 7.56 157.43 7.56C156.822 7.56 156.302 7.688 155.87 7.944C155.438 8.2 155.11 8.544 154.886 8.976C154.678 9.392 154.574 9.864 154.574 10.392V16.536C154.574 16.952 154.438 17.304 154.166 17.592C153.894 17.864 153.55 18 153.134 18C152.718 18 152.374 17.864 152.102 17.592C151.83 17.304 151.694 16.952 151.694 16.536V10.392C151.694 9.864 151.63 9.392 151.502 8.976C151.374 8.544 151.142 8.2 150.806 7.944C150.47 7.688 149.99 7.56 149.366 7.56C148.758 7.56 148.238 7.688 147.806 7.944C147.374 8.2 147.046 8.544 146.822 8.976C146.614 9.392 146.51 9.864 146.51 10.392V16.536C146.51 16.952 146.374 17.304 146.102 17.592C145.83 17.864 145.486 18 145.07 18C144.654 18 144.31 17.864 144.038 17.592C143.766 17.304 143.63 16.952 143.63 16.536V6.624C143.63 6.208 143.766 5.864 144.038 5.592C144.31 5.304 144.654 5.16 145.07 5.16C145.486 5.16 145.83 5.304 146.102 5.592C146.374 5.864 146.51 6.208 146.51 6.624V7.656L146.15 7.584C146.294 7.312 146.494 7.024 146.75 6.72C147.006 6.4 147.318 6.104 147.686 5.832C148.054 5.56 148.462 5.344 148.91 5.184C149.358 5.008 149.846 4.92 150.374 4.92ZM178.211 11.592C178.211 12.904 177.915 14.064 177.323 15.072C176.747 16.064 175.963 16.84 174.971 17.4C173.995 17.96 172.899 18.24 171.683 18.24C170.467 18.24 169.363 17.96 168.371 17.4C167.395 16.84 166.611 16.064 166.019 15.072C165.443 14.064 165.155 12.904 165.155 11.592C165.155 10.28 165.443 9.128 166.019 8.136C166.611 7.128 167.395 6.344 168.371 5.784C169.363 5.208 170.467 4.92 171.683 4.92C172.899 4.92 173.995 5.208 174.971 5.784C175.963 6.344 176.747 7.128 177.323 8.136C177.915 9.128 178.211 10.28 178.211 11.592ZM175.331 11.592C175.331 10.776 175.163 10.072 174.827 9.48C174.507 8.872 174.067 8.4 173.507 8.064C172.963 7.728 172.355 7.56 171.683 7.56C171.011 7.56 170.395 7.728 169.835 8.064C169.291 8.4 168.851 8.872 168.515 9.48C168.195 10.072 168.035 10.776 168.035 11.592C168.035 12.392 168.195 13.096 168.515 13.704C168.851 14.296 169.291 14.76 169.835 15.096C170.395 15.432 171.011 15.6 171.683 15.6C172.355 15.6 172.963 15.432 173.507 15.096C174.067 14.76 174.507 14.296 174.827 13.704C175.163 13.096 175.331 12.392 175.331 11.592ZM182.172 18C181.756 18 181.412 17.864 181.14 17.592C180.868 17.304 180.732 16.952 180.732 16.536V6.624C180.732 6.208 180.868 5.864 181.14 5.592C181.412 5.304 181.756 5.16 182.172 5.16C182.588 5.16 182.932 5.304 183.204 5.592C183.476 5.864 183.612 6.208 183.612 6.624V8.88L183.444 7.272C183.62 6.888 183.844 6.552 184.116 6.264C184.404 5.96 184.724 5.712 185.076 5.52C185.428 5.312 185.804 5.16 186.204 5.064C186.604 4.968 187.004 4.92 187.404 4.92C187.884 4.92 188.284 5.056 188.604 5.328C188.94 5.6 189.108 5.92 189.108 6.288C189.108 6.816 188.972 7.2 188.7 7.44C188.428 7.664 188.132 7.776 187.812 7.776C187.508 7.776 187.228 7.72 186.972 7.608C186.732 7.496 186.452 7.44 186.132 7.44C185.844 7.44 185.548 7.512 185.244 7.656C184.956 7.784 184.684 7.992 184.428 8.28C184.188 8.568 183.988 8.928 183.828 9.36C183.684 9.776 183.612 10.272 183.612 10.848V16.536C183.612 16.952 183.476 17.304 183.204 17.592C182.932 17.864 182.588 18 182.172 18ZM201.369 4.92C201.785 4.92 202.129 5.056 202.401 5.328C202.673 5.6 202.809 5.952 202.809 6.384V16.536C202.809 16.952 202.673 17.304 202.401 17.592C202.129 17.864 201.785 18 201.369 18C200.953 18 200.609 17.864 200.337 17.592C200.065 17.304 199.929 16.952 199.929 16.536V15.36L200.457 15.576C200.457 15.784 200.345 16.04 200.121 16.344C199.897 16.632 199.593 16.92 199.209 17.208C198.825 17.496 198.369 17.744 197.841 17.952C197.329 18.144 196.769 18.24 196.161 18.24C195.057 18.24 194.057 17.96 193.161 17.4C192.265 16.824 191.553 16.04 191.025 15.048C190.513 14.04 190.257 12.888 190.257 11.592C190.257 10.28 190.513 9.128 191.025 8.136C191.553 7.128 192.257 6.344 193.137 5.784C194.017 5.208 194.993 4.92 196.065 4.92C196.753 4.92 197.385 5.024 197.961 5.232C198.537 5.44 199.033 5.704 199.449 6.024C199.881 6.344 200.209 6.672 200.433 7.008C200.673 7.328 200.793 7.6 200.793 7.824L199.929 8.136V6.384C199.929 5.968 200.065 5.624 200.337 5.352C200.609 5.064 200.953 4.92 201.369 4.92ZM196.521 15.6C197.225 15.6 197.841 15.424 198.369 15.072C198.897 14.72 199.305 14.24 199.593 13.632C199.897 13.024 200.049 12.344 200.049 11.592C200.049 10.824 199.897 10.136 199.593 9.528C199.305 8.92 198.897 8.44 198.369 8.088C197.841 7.736 197.225 7.56 196.521 7.56C195.833 7.56 195.225 7.736 194.697 8.088C194.169 8.44 193.753 8.92 193.449 9.528C193.161 10.136 193.017 10.824 193.017 11.592C193.017 12.344 193.161 13.024 193.449 13.632C193.753 14.24 194.169 14.72 194.697 15.072C195.225 15.424 195.833 15.6 196.521 15.6ZM212.575 4.92C213.695 4.92 214.695 5.208 215.575 5.784C216.471 6.344 217.175 7.12 217.687 8.112C218.215 9.104 218.479 10.256 218.479 11.568C218.479 12.88 218.215 14.04 217.687 15.048C217.175 16.04 216.479 16.824 215.599 17.4C214.735 17.96 213.759 18.24 212.671 18.24C212.031 18.24 211.431 18.136 210.871 17.928C210.311 17.72 209.815 17.456 209.383 17.136C208.967 16.816 208.639 16.496 208.399 16.176C208.175 15.84 208.063 15.56 208.063 15.336L208.807 15.024V16.776C208.807 17.192 208.671 17.544 208.399 17.832C208.127 18.104 207.783 18.24 207.367 18.24C206.951 18.24 206.607 18.104 206.335 17.832C206.063 17.56 205.927 17.208 205.927 16.776V1.704C205.927 1.288 206.063 0.943999 206.335 0.671999C206.607 0.383999 206.951 0.24 207.367 0.24C207.783 0.24 208.127 0.383999 208.399 0.671999C208.671 0.943999 208.807 1.288 208.807 1.704V7.8L208.399 7.584C208.399 7.376 208.511 7.128 208.735 6.84C208.959 6.536 209.263 6.24 209.647 5.952C210.031 5.648 210.471 5.4 210.967 5.208C211.479 5.016 212.015 4.92 212.575 4.92ZM212.215 7.56C211.511 7.56 210.895 7.736 210.367 8.088C209.839 8.44 209.423 8.92 209.119 9.528C208.831 10.12 208.687 10.8 208.687 11.568C208.687 12.32 208.831 13.008 209.119 13.632C209.423 14.24 209.839 14.72 210.367 15.072C210.895 15.424 211.511 15.6 212.215 15.6C212.919 15.6 213.527 15.424 214.039 15.072C214.567 14.72 214.975 14.24 215.263 13.632C215.567 13.008 215.719 12.32 215.719 11.568C215.719 10.8 215.567 10.12 215.263 9.528C214.975 8.92 214.567 8.44 214.039 8.088C213.527 7.736 212.919 7.56 212.215 7.56ZM224.118 16.536C224.118 16.952 223.974 17.304 223.686 17.592C223.414 17.864 223.07 18 222.654 18C222.254 18 221.918 17.864 221.646 17.592C221.374 17.304 221.238 16.952 221.238 16.536V1.704C221.238 1.288 221.374 0.943999 221.646 0.671999C221.934 0.383999 222.286 0.24 222.702 0.24C223.118 0.24 223.454 0.383999 223.71 0.671999C223.982 0.943999 224.118 1.288 224.118 1.704V16.536ZM233.28 18.24C231.92 18.24 230.736 17.96 229.728 17.4C228.736 16.824 227.968 16.048 227.424 15.072C226.896 14.096 226.632 12.992 226.632 11.76C226.632 10.32 226.92 9.096 227.496 8.088C228.088 7.064 228.856 6.28 229.8 5.736C230.744 5.192 231.744 4.92 232.8 4.92C233.616 4.92 234.384 5.088 235.104 5.424C235.84 5.76 236.488 6.224 237.048 6.816C237.608 7.392 238.048 8.064 238.368 8.832C238.704 9.6 238.872 10.416 238.872 11.28C238.856 11.664 238.704 11.976 238.416 12.216C238.128 12.456 237.792 12.576 237.408 12.576H228.24L227.52 10.176H236.328L235.8 10.656V10.008C235.768 9.544 235.6 9.128 235.296 8.76C235.008 8.392 234.64 8.104 234.192 7.896C233.76 7.672 233.296 7.56 232.8 7.56C232.32 7.56 231.872 7.624 231.456 7.752C231.04 7.88 230.68 8.096 230.376 8.4C230.072 8.704 229.832 9.112 229.656 9.624C229.48 10.136 229.392 10.784 229.392 11.568C229.392 12.432 229.568 13.168 229.92 13.776C230.288 14.368 230.752 14.824 231.312 15.144C231.888 15.448 232.496 15.6 233.136 15.6C233.728 15.6 234.2 15.552 234.552 15.456C234.904 15.36 235.184 15.248 235.392 15.12C235.616 14.976 235.816 14.856 235.992 14.76C236.28 14.616 236.552 14.544 236.808 14.544C237.16 14.544 237.448 14.664 237.672 14.904C237.912 15.144 238.032 15.424 238.032 15.744C238.032 16.176 237.808 16.568 237.36 16.92C236.944 17.272 236.36 17.584 235.608 17.856C234.856 18.112 234.08 18.24 233.28 18.24ZM74.5758 33.2C75.4078 33.2 76.1838 33.44 76.9038 33.92C77.6398 34.4 78.2318 35.048 78.6798 35.864C79.1278 36.68 79.3518 37.592 79.3518 38.6C79.3518 39.592 79.1278 40.496 78.6798 41.312C78.2318 42.128 77.6398 42.784 76.9038 43.28C76.1838 43.76 75.4078 44 74.5758 44H70.1598L70.3998 43.568V48.536C70.3998 48.952 70.2718 49.304 70.0158 49.592C69.7598 49.864 69.4238 50 69.0078 50C68.6078 50 68.2798 49.864 68.0238 49.592C67.7678 49.304 67.6398 48.952 67.6398 48.536V34.664C67.6398 34.248 67.7758 33.904 68.0478 33.632C68.3358 33.344 68.6878 33.2 69.1038 33.2H74.5758ZM74.5758 41.264C74.8798 41.264 75.1758 41.136 75.4638 40.88C75.7518 40.624 75.9918 40.296 76.1838 39.896C76.3758 39.48 76.4718 39.048 76.4718 38.6C76.4718 38.136 76.3758 37.704 76.1838 37.304C75.9918 36.904 75.7518 36.584 75.4638 36.344C75.1758 36.088 74.8798 35.96 74.5758 35.96H70.1118L70.3998 35.528V41.648L70.1358 41.264H74.5758ZM87.6744 50.24C86.3144 50.24 85.1304 49.96 84.1224 49.4C83.1304 48.824 82.3624 48.048 81.8184 47.072C81.2904 46.096 81.0264 44.992 81.0264 43.76C81.0264 42.32 81.3144 41.096 81.8904 40.088C82.4824 39.064 83.2504 38.28 84.1944 37.736C85.1384 37.192 86.1384 36.92 87.1944 36.92C88.0104 36.92 88.7784 37.088 89.4984 37.424C90.2344 37.76 90.8824 38.224 91.4424 38.816C92.0024 39.392 92.4424 40.064 92.7624 40.832C93.0984 41.6 93.2664 42.416 93.2664 43.28C93.2504 43.664 93.0984 43.976 92.8104 44.216C92.5224 44.456 92.1864 44.576 91.8024 44.576H82.6344L81.9144 42.176H90.7224L90.1944 42.656V42.008C90.1624 41.544 89.9944 41.128 89.6904 40.76C89.4024 40.392 89.0344 40.104 88.5864 39.896C88.1544 39.672 87.6904 39.56 87.1944 39.56C86.7144 39.56 86.2664 39.624 85.8504 39.752C85.4344 39.88 85.0744 40.096 84.7704 40.4C84.4664 40.704 84.2264 41.112 84.0504 41.624C83.8744 42.136 83.7864 42.784 83.7864 43.568C83.7864 44.432 83.9624 45.168 84.3144 45.776C84.6824 46.368 85.1464 46.824 85.7064 47.144C86.2824 47.448 86.8904 47.6 87.5304 47.6C88.1224 47.6 88.5944 47.552 88.9464 47.456C89.2984 47.36 89.5784 47.248 89.7864 47.12C90.0104 46.976 90.2104 46.856 90.3864 46.76C90.6744 46.616 90.9464 46.544 91.2024 46.544C91.5544 46.544 91.8424 46.664 92.0664 46.904C92.3064 47.144 92.4264 47.424 92.4264 47.744C92.4264 48.176 92.2024 48.568 91.7544 48.92C91.3384 49.272 90.7544 49.584 90.0024 49.856C89.2504 50.112 88.4744 50.24 87.6744 50.24ZM95.9267 37.4H101.615C101.999 37.4 102.319 37.528 102.575 37.784C102.831 38.04 102.959 38.36 102.959 38.744C102.959 39.112 102.831 39.424 102.575 39.68C102.319 39.92 101.999 40.04 101.615 40.04H95.9267C95.5427 40.04 95.2227 39.912 94.9667 39.656C94.7107 39.4 94.5827 39.08 94.5827 38.696C94.5827 38.328 94.7107 38.024 94.9667 37.784C95.2227 37.528 95.5427 37.4 95.9267 37.4ZM98.4947 34.4C98.9107 34.4 99.2467 34.544 99.5027 34.832C99.7747 35.104 99.9107 35.448 99.9107 35.864V46.544C99.9107 46.768 99.9507 46.952 100.031 47.096C100.127 47.24 100.247 47.344 100.391 47.408C100.551 47.472 100.719 47.504 100.895 47.504C101.087 47.504 101.263 47.472 101.423 47.408C101.583 47.328 101.767 47.288 101.975 47.288C102.199 47.288 102.399 47.392 102.575 47.6C102.767 47.808 102.863 48.096 102.863 48.464C102.863 48.912 102.615 49.28 102.119 49.568C101.639 49.856 101.119 50 100.559 50C100.223 50 99.8467 49.976 99.4307 49.928C99.0307 49.864 98.6467 49.728 98.2787 49.52C97.9267 49.296 97.6307 48.96 97.3907 48.512C97.1507 48.064 97.0307 47.448 97.0307 46.664V35.864C97.0307 35.448 97.1667 35.104 97.4387 34.832C97.7267 34.544 98.0787 34.4 98.4947 34.4ZM119.77 33.2C120.922 33.2 121.946 33.416 122.842 33.848C123.738 34.28 124.49 34.888 125.098 35.672C125.722 36.44 126.186 37.336 126.49 38.36C126.81 39.368 126.97 40.448 126.97 41.6C126.97 43.152 126.69 44.568 126.13 45.848C125.57 47.112 124.754 48.12 123.682 48.872C122.626 49.624 121.322 50 119.77 50H114.034C113.618 50 113.266 49.864 112.978 49.592C112.706 49.304 112.57 48.952 112.57 48.536V34.664C112.57 34.248 112.706 33.904 112.978 33.632C113.266 33.344 113.618 33.2 114.034 33.2H119.77ZM119.53 47.24C120.538 47.24 121.362 46.984 122.002 46.472C122.642 45.944 123.106 45.256 123.394 44.408C123.698 43.544 123.85 42.608 123.85 41.6C123.85 40.848 123.762 40.136 123.586 39.464C123.426 38.776 123.17 38.176 122.818 37.664C122.466 37.136 122.018 36.72 121.474 36.416C120.93 36.112 120.282 35.96 119.53 35.96H115.33L115.57 35.744V47.504L115.426 47.24H119.53ZM132.198 48.536C132.198 48.952 132.062 49.304 131.79 49.592C131.518 49.864 131.174 50 130.758 50C130.342 50 129.998 49.864 129.726 49.592C129.454 49.304 129.318 48.952 129.318 48.536V38.624C129.318 38.208 129.454 37.864 129.726 37.592C129.998 37.304 130.342 37.16 130.758 37.16C131.174 37.16 131.518 37.304 131.79 37.592C132.062 37.864 132.198 38.208 132.198 38.624V48.536ZM130.734 35.6C130.19 35.6 129.806 35.512 129.582 35.336C129.358 35.16 129.246 34.848 129.246 34.4V33.944C129.246 33.48 129.366 33.168 129.606 33.008C129.862 32.832 130.246 32.744 130.758 32.744C131.318 32.744 131.71 32.832 131.934 33.008C132.158 33.184 132.27 33.496 132.27 33.944V34.4C132.27 34.864 132.15 35.184 131.91 35.36C131.67 35.52 131.278 35.6 130.734 35.6ZM145.67 36.92C146.086 36.92 146.43 37.056 146.702 37.328C146.974 37.6 147.11 37.952 147.11 38.384V48.536C147.11 48.952 146.974 49.304 146.702 49.592C146.43 49.864 146.086 50 145.67 50C145.254 50 144.91 49.864 144.638 49.592C144.366 49.304 144.23 48.952 144.23 48.536V47.36L144.758 47.576C144.758 47.784 144.646 48.04 144.422 48.344C144.198 48.632 143.894 48.92 143.51 49.208C143.126 49.496 142.67 49.744 142.142 49.952C141.63 50.144 141.07 50.24 140.462 50.24C139.358 50.24 138.358 49.96 137.462 49.4C136.566 48.824 135.854 48.04 135.326 47.048C134.814 46.04 134.558 44.888 134.558 43.592C134.558 42.28 134.814 41.128 135.326 40.136C135.854 39.128 136.558 38.344 137.438 37.784C138.318 37.208 139.294 36.92 140.366 36.92C141.054 36.92 141.686 37.024 142.262 37.232C142.838 37.44 143.334 37.704 143.75 38.024C144.182 38.344 144.51 38.672 144.734 39.008C144.974 39.328 145.094 39.6 145.094 39.824L144.23 40.136V38.384C144.23 37.968 144.366 37.624 144.638 37.352C144.91 37.064 145.254 36.92 145.67 36.92ZM140.822 47.6C141.526 47.6 142.142 47.424 142.67 47.072C143.198 46.72 143.606 46.24 143.894 45.632C144.198 45.024 144.35 44.344 144.35 43.592C144.35 42.824 144.198 42.136 143.894 41.528C143.606 40.92 143.198 40.44 142.67 40.088C142.142 39.736 141.526 39.56 140.822 39.56C140.134 39.56 139.526 39.736 138.998 40.088C138.47 40.44 138.054 40.92 137.75 41.528C137.462 42.136 137.318 42.824 137.318 43.592C137.318 44.344 137.462 45.024 137.75 45.632C138.054 46.24 138.47 46.72 138.998 47.072C139.526 47.424 140.134 47.6 140.822 47.6ZM151.668 50C151.252 50 150.908 49.864 150.636 49.592C150.364 49.304 150.228 48.952 150.228 48.536V38.624C150.228 38.208 150.364 37.864 150.636 37.592C150.908 37.304 151.252 37.16 151.668 37.16C152.084 37.16 152.428 37.304 152.7 37.592C152.972 37.864 153.108 38.208 153.108 38.624V40.88L152.94 39.272C153.116 38.888 153.34 38.552 153.612 38.264C153.9 37.96 154.22 37.712 154.572 37.52C154.924 37.312 155.3 37.16 155.7 37.064C156.1 36.968 156.5 36.92 156.9 36.92C157.38 36.92 157.78 37.056 158.1 37.328C158.436 37.6 158.604 37.92 158.604 38.288C158.604 38.816 158.468 39.2 158.196 39.44C157.924 39.664 157.628 39.776 157.308 39.776C157.004 39.776 156.724 39.72 156.468 39.608C156.228 39.496 155.948 39.44 155.628 39.44C155.34 39.44 155.044 39.512 154.74 39.656C154.452 39.784 154.18 39.992 153.924 40.28C153.684 40.568 153.484 40.928 153.324 41.36C153.18 41.776 153.108 42.272 153.108 42.848V48.536C153.108 48.952 152.972 49.304 152.7 49.592C152.428 49.864 152.084 50 151.668 50ZM170.162 37.16C170.578 37.16 170.922 37.304 171.194 37.592C171.466 37.864 171.602 38.208 171.602 38.624V48.824C171.602 50.296 171.322 51.464 170.762 52.328C170.218 53.208 169.482 53.84 168.554 54.224C167.626 54.608 166.586 54.8 165.434 54.8C164.922 54.8 164.378 54.76 163.802 54.68C163.226 54.6 162.754 54.48 162.386 54.32C161.906 54.112 161.57 53.848 161.378 53.528C161.202 53.224 161.17 52.896 161.282 52.544C161.426 52.08 161.658 51.76 161.978 51.584C162.298 51.424 162.634 51.408 162.986 51.536C163.242 51.616 163.578 51.736 163.994 51.896C164.41 52.072 164.89 52.16 165.434 52.16C166.17 52.16 166.778 52.056 167.258 51.848C167.754 51.656 168.122 51.32 168.362 50.84C168.618 50.376 168.746 49.736 168.746 48.92V47.312L169.25 47.888C168.978 48.416 168.634 48.856 168.218 49.208C167.818 49.544 167.338 49.8 166.778 49.976C166.218 50.152 165.578 50.24 164.858 50.24C164.01 50.24 163.266 50.048 162.626 49.664C162.002 49.264 161.514 48.72 161.162 48.032C160.81 47.328 160.634 46.528 160.634 45.632V38.624C160.634 38.208 160.77 37.864 161.042 37.592C161.314 37.304 161.658 37.16 162.074 37.16C162.49 37.16 162.834 37.304 163.106 37.592C163.378 37.864 163.514 38.208 163.514 38.624V44.768C163.514 45.808 163.738 46.544 164.186 46.976C164.65 47.392 165.29 47.6 166.106 47.6C166.666 47.6 167.138 47.496 167.522 47.288C167.906 47.064 168.202 46.744 168.41 46.328C168.618 45.896 168.722 45.376 168.722 44.768V38.624C168.722 38.208 168.858 37.864 169.13 37.592C169.402 37.304 169.746 37.16 170.162 37.16Z" fill="#FF5E95"/>
</svg>
