<svg width="158" height="54" viewBox="0 0 158 54" fill="none" xmlns="http://www.w3.org/2000/svg">
<path d="M21.7891 18C21.3891 18 21.0531 17.864 20.7811 17.592C20.5091 17.304 20.3731 16.952 20.3731 16.536V5.256L20.8771 5.376L16.2451 11.112L16.1251 10.8H24.6211C25.0051 10.8 25.3251 10.928 25.5811 11.184C25.8371 11.44 25.9651 11.76 25.9651 12.144C25.9651 12.512 25.8371 12.824 25.5811 13.08C25.3251 13.32 25.0051 13.44 24.6211 13.44H14.1331C13.7971 13.44 13.4691 13.304 13.1491 13.032C12.8451 12.76 12.6931 12.424 12.6931 12.024C12.6931 11.672 12.8131 11.352 13.0531 11.064L20.6371 1.776C20.7651 1.6 20.9331 1.464 21.1411 1.368C21.3491 1.256 21.5811 1.2 21.8371 1.2C22.2531 1.2 22.5891 1.344 22.8451 1.632C23.1171 1.904 23.2531 2.248 23.2531 2.664V16.536C23.2531 16.952 23.1091 17.304 22.8211 17.592C22.5491 17.864 22.2051 18 21.7891 18ZM32.3465 18.24C31.7545 18.24 31.1225 18.152 30.4505 17.976C29.7785 17.784 29.2265 17.512 28.7945 17.16C28.5865 16.984 28.4185 16.76 28.2905 16.488C28.1785 16.2 28.1225 15.928 28.1225 15.672C28.1225 15.4 28.2345 15.144 28.4585 14.904C28.6985 14.664 29.0345 14.544 29.4665 14.544C29.7545 14.544 30.1145 14.696 30.5465 15C30.8025 15.16 31.0825 15.304 31.3865 15.432C31.6905 15.56 32.0025 15.624 32.3225 15.624C33.0905 15.624 33.7545 15.488 34.3145 15.216C34.8745 14.928 35.3065 14.536 35.6105 14.04C35.9145 13.544 36.0665 12.96 36.0665 12.288C36.0665 11.68 35.9225 11.16 35.6345 10.728C35.3625 10.296 34.9945 9.96 34.5305 9.72C34.0825 9.48 33.5945 9.36 33.0665 9.36C32.5705 9.36 32.1385 9.44 31.7705 9.6C31.4025 9.76 31.0665 9.928 30.7625 10.104C30.4585 10.264 30.1545 10.344 29.8505 10.344C29.3225 10.344 28.9305 10.232 28.6745 10.008C28.4185 9.768 28.2585 9.488 28.1945 9.168C28.1305 8.848 28.1145 8.56 28.1465 8.304L28.8905 2.472C28.9545 2.136 29.1145 1.864 29.3705 1.656C29.6425 1.432 29.9625 1.32 30.3305 1.32H37.2665C37.6505 1.32 37.9705 1.448 38.2265 1.704C38.4825 1.96 38.6105 2.28 38.6105 2.664C38.6105 3.032 38.4825 3.344 38.2265 3.6C37.9705 3.84 37.6505 3.96 37.2665 3.96H31.0745L31.3385 3.744L30.6905 8.616L30.3785 7.704C30.4745 7.544 30.6825 7.392 31.0025 7.248C31.3225 7.104 31.6905 6.984 32.1065 6.888C32.5225 6.776 32.9305 6.72 33.3305 6.72C34.4025 6.72 35.3625 6.968 36.2105 7.464C37.0585 7.944 37.7225 8.608 38.2025 9.456C38.6985 10.288 38.9465 11.232 38.9465 12.288C38.9465 13.488 38.6745 14.536 38.1305 15.432C37.5865 16.328 36.8185 17.024 35.8265 17.52C34.8505 18 33.6905 18.24 32.3465 18.24ZM55.4212 4.92C56.7012 4.92 57.6452 5.232 58.2532 5.856C58.8612 6.464 59.2612 7.256 59.4532 8.232L59.0452 8.016L59.2372 7.632C59.4292 7.264 59.7252 6.872 60.1252 6.456C60.5252 6.024 61.0052 5.664 61.5652 5.376C62.1412 5.072 62.7812 4.92 63.4852 4.92C64.6372 4.92 65.5092 5.168 66.1012 5.664C66.7092 6.16 67.1252 6.824 67.3492 7.656C67.5732 8.472 67.6852 9.384 67.6852 10.392V16.536C67.6852 16.952 67.5492 17.304 67.2772 17.592C67.0052 17.864 66.6612 18 66.2452 18C65.8292 18 65.4852 17.864 65.2132 17.592C64.9412 17.304 64.8052 16.952 64.8052 16.536V10.392C64.8052 9.864 64.7412 9.392 64.6132 8.976C64.4852 8.544 64.2532 8.2 63.9172 7.944C63.5812 7.688 63.1012 7.56 62.4772 7.56C61.8692 7.56 61.3492 7.688 60.9172 7.944C60.4852 8.2 60.1572 8.544 59.9332 8.976C59.7252 9.392 59.6212 9.864 59.6212 10.392V16.536C59.6212 16.952 59.4852 17.304 59.2132 17.592C58.9412 17.864 58.5972 18 58.1812 18C57.7652 18 57.4212 17.864 57.1492 17.592C56.8772 17.304 56.7412 16.952 56.7412 16.536V10.392C56.7412 9.864 56.6772 9.392 56.5492 8.976C56.4212 8.544 56.1892 8.2 55.8532 7.944C55.5172 7.688 55.0372 7.56 54.4132 7.56C53.8052 7.56 53.2852 7.688 52.8532 7.944C52.4212 8.2 52.0932 8.544 51.8692 8.976C51.6612 9.392 51.5572 9.864 51.5572 10.392V16.536C51.5572 16.952 51.4212 17.304 51.1492 17.592C50.8772 17.864 50.5332 18 50.1172 18C49.7012 18 49.3572 17.864 49.0852 17.592C48.8132 17.304 48.6772 16.952 48.6772 16.536V6.624C48.6772 6.208 48.8132 5.864 49.0852 5.592C49.3572 5.304 49.7012 5.16 50.1172 5.16C50.5332 5.16 50.8772 5.304 51.1492 5.592C51.4212 5.864 51.5572 6.208 51.5572 6.624V7.656L51.1972 7.584C51.3412 7.312 51.5412 7.024 51.7972 6.72C52.0532 6.4 52.3652 6.104 52.7332 5.832C53.1012 5.56 53.5092 5.344 53.9572 5.184C54.4052 5.008 54.8932 4.92 55.4212 4.92ZM73.5142 16.536C73.5142 16.952 73.3782 17.304 73.1062 17.592C72.8342 17.864 72.4902 18 72.0742 18C71.6582 18 71.3142 17.864 71.0422 17.592C70.7702 17.304 70.6342 16.952 70.6342 16.536V6.624C70.6342 6.208 70.7702 5.864 71.0422 5.592C71.3142 5.304 71.6582 5.16 72.0742 5.16C72.4902 5.16 72.8342 5.304 73.1062 5.592C73.3782 5.864 73.5142 6.208 73.5142 6.624V16.536ZM72.0502 3.6C71.5062 3.6 71.1222 3.512 70.8982 3.336C70.6742 3.16 70.5622 2.848 70.5622 2.4V1.944C70.5622 1.48 70.6822 1.168 70.9222 1.008C71.1782 0.831999 71.5622 0.743999 72.0742 0.743999C72.6342 0.743999 73.0262 0.831999 73.2502 1.008C73.4742 1.184 73.5862 1.496 73.5862 1.944V2.4C73.5862 2.864 73.4662 3.184 73.2262 3.36C72.9862 3.52 72.5942 3.6 72.0502 3.6ZM83.3381 4.92C84.5221 4.92 85.4181 5.168 86.0261 5.664C86.6501 6.16 87.0741 6.824 87.2981 7.656C87.5381 8.472 87.6581 9.384 87.6581 10.392V16.536C87.6581 16.952 87.5221 17.304 87.2501 17.592C86.9781 17.864 86.6341 18 86.2181 18C85.8021 18 85.4581 17.864 85.1861 17.592C84.9141 17.304 84.7781 16.952 84.7781 16.536V10.392C84.7781 9.864 84.7061 9.392 84.5621 8.976C84.4341 8.544 84.1941 8.2 83.8421 7.944C83.4901 7.688 82.9861 7.56 82.3301 7.56C81.6901 7.56 81.1461 7.688 80.6981 7.944C80.2661 8.2 79.9301 8.544 79.6901 8.976C79.4661 9.392 79.3541 9.864 79.3541 10.392V16.536C79.3541 16.952 79.2181 17.304 78.9461 17.592C78.6741 17.864 78.3301 18 77.9141 18C77.4981 18 77.1541 17.864 76.8821 17.592C76.6101 17.304 76.4741 16.952 76.4741 16.536V6.624C76.4741 6.208 76.6101 5.864 76.8821 5.592C77.1541 5.304 77.4981 5.16 77.9141 5.16C78.3301 5.16 78.6741 5.304 78.9461 5.592C79.2181 5.864 79.3541 6.208 79.3541 6.624V7.656L78.9941 7.584C79.1381 7.312 79.3461 7.024 79.6181 6.72C79.8901 6.4 80.2101 6.104 80.5781 5.832C80.9461 5.56 81.3621 5.344 81.8261 5.184C82.2901 5.008 82.7941 4.92 83.3381 4.92ZM90.0269 16.008C89.8669 15.784 89.7949 15.496 89.8109 15.144C89.8269 14.792 90.0349 14.488 90.4349 14.232C90.6909 14.072 90.9629 14.008 91.2509 14.04C91.5389 14.056 91.8189 14.2 92.0909 14.472C92.5549 14.936 93.0429 15.296 93.5549 15.552C94.0669 15.808 94.7069 15.936 95.4749 15.936C95.7149 15.92 95.9789 15.888 96.2669 15.84C96.5549 15.776 96.8029 15.648 97.0109 15.456C97.2349 15.248 97.3469 14.936 97.3469 14.52C97.3469 14.168 97.2269 13.888 96.9869 13.68C96.7469 13.472 96.4269 13.296 96.0269 13.152C95.6429 13.008 95.2109 12.872 94.7309 12.744C94.2349 12.6 93.7229 12.44 93.1949 12.264C92.6829 12.088 92.2109 11.864 91.7789 11.592C91.3469 11.304 90.9949 10.928 90.7229 10.464C90.4509 10 90.3149 9.416 90.3149 8.712C90.3149 7.912 90.5389 7.232 90.9869 6.672C91.4349 6.112 92.0109 5.68 92.7149 5.376C93.4349 5.072 94.1869 4.92 94.9709 4.92C95.4669 4.92 95.9869 4.984 96.5309 5.112C97.0749 5.224 97.5949 5.416 98.0909 5.688C98.5869 5.944 99.0029 6.288 99.3389 6.72C99.5149 6.96 99.6189 7.248 99.6509 7.584C99.6829 7.92 99.5309 8.224 99.1949 8.496C98.9549 8.688 98.6749 8.776 98.3549 8.76C98.0349 8.728 97.7709 8.616 97.5629 8.424C97.2909 8.072 96.9229 7.792 96.4589 7.584C96.0109 7.376 95.4909 7.272 94.8989 7.272C94.6589 7.272 94.3949 7.304 94.1069 7.368C93.8349 7.416 93.5949 7.536 93.3869 7.728C93.1789 7.904 93.0749 8.192 93.0749 8.592C93.0749 8.96 93.1949 9.256 93.4349 9.48C93.6749 9.688 93.9949 9.864 94.3949 10.008C94.8109 10.136 95.2509 10.264 95.7149 10.392C96.1949 10.52 96.6829 10.672 97.1789 10.848C97.6749 11.024 98.1309 11.256 98.5469 11.544C98.9629 11.832 99.2989 12.208 99.5549 12.672C99.8109 13.12 99.9389 13.696 99.9389 14.4C99.9389 15.216 99.6989 15.912 99.2189 16.488C98.7389 17.064 98.1389 17.504 97.4189 17.808C96.6989 18.096 95.9629 18.24 95.2109 18.24C94.2669 18.24 93.3229 18.08 92.3789 17.76C91.4349 17.424 90.6509 16.84 90.0269 16.008ZM115.724 4.92C116.844 4.92 117.844 5.208 118.724 5.784C119.62 6.344 120.324 7.12 120.836 8.112C121.364 9.104 121.628 10.256 121.628 11.568C121.628 12.88 121.364 14.04 120.836 15.048C120.324 16.04 119.628 16.824 118.748 17.4C117.884 17.96 116.908 18.24 115.82 18.24C115.18 18.24 114.58 18.136 114.02 17.928C113.46 17.72 112.964 17.456 112.532 17.136C112.116 16.816 111.788 16.496 111.548 16.176C111.324 15.84 111.212 15.56 111.212 15.336L111.956 15.024V21.336C111.956 21.752 111.82 22.096 111.548 22.368C111.276 22.656 110.932 22.8 110.516 22.8C110.1 22.8 109.756 22.664 109.484 22.392C109.212 22.12 109.076 21.768 109.076 21.336V6.624C109.076 6.208 109.212 5.864 109.484 5.592C109.756 5.304 110.1 5.16 110.516 5.16C110.932 5.16 111.276 5.304 111.548 5.592C111.82 5.864 111.956 6.208 111.956 6.624V7.8L111.548 7.584C111.548 7.376 111.66 7.128 111.884 6.84C112.108 6.536 112.412 6.24 112.796 5.952C113.18 5.648 113.62 5.4 114.116 5.208C114.628 5.016 115.164 4.92 115.724 4.92ZM115.364 7.56C114.66 7.56 114.044 7.736 113.516 8.088C112.988 8.44 112.572 8.92 112.268 9.528C111.98 10.12 111.836 10.8 111.836 11.568C111.836 12.32 111.98 13.008 112.268 13.632C112.572 14.24 112.988 14.72 113.516 15.072C114.044 15.424 114.66 15.6 115.364 15.6C116.068 15.6 116.676 15.424 117.188 15.072C117.716 14.72 118.124 14.24 118.412 13.632C118.716 13.008 118.868 12.32 118.868 11.568C118.868 10.8 118.716 10.12 118.412 9.528C118.124 8.92 117.716 8.44 117.188 8.088C116.676 7.736 116.068 7.56 115.364 7.56ZM130.194 18.24C128.834 18.24 127.65 17.96 126.642 17.4C125.65 16.824 124.882 16.048 124.338 15.072C123.81 14.096 123.546 12.992 123.546 11.76C123.546 10.32 123.834 9.096 124.41 8.088C125.002 7.064 125.77 6.28 126.714 5.736C127.658 5.192 128.658 4.92 129.714 4.92C130.53 4.92 131.298 5.088 132.018 5.424C132.754 5.76 133.402 6.224 133.962 6.816C134.522 7.392 134.962 8.064 135.282 8.832C135.618 9.6 135.786 10.416 135.786 11.28C135.77 11.664 135.618 11.976 135.33 12.216C135.042 12.456 134.706 12.576 134.322 12.576H125.154L124.434 10.176H133.242L132.714 10.656V10.008C132.682 9.544 132.514 9.128 132.21 8.76C131.922 8.392 131.554 8.104 131.106 7.896C130.674 7.672 130.21 7.56 129.714 7.56C129.234 7.56 128.786 7.624 128.37 7.752C127.954 7.88 127.594 8.096 127.29 8.4C126.986 8.704 126.746 9.112 126.57 9.624C126.394 10.136 126.306 10.784 126.306 11.568C126.306 12.432 126.482 13.168 126.834 13.776C127.202 14.368 127.666 14.824 128.226 15.144C128.802 15.448 129.41 15.6 130.05 15.6C130.642 15.6 131.114 15.552 131.466 15.456C131.818 15.36 132.098 15.248 132.306 15.12C132.53 14.976 132.73 14.856 132.906 14.76C133.194 14.616 133.466 14.544 133.722 14.544C134.074 14.544 134.362 14.664 134.586 14.904C134.826 15.144 134.946 15.424 134.946 15.744C134.946 16.176 134.722 16.568 134.274 16.92C133.858 17.272 133.274 17.584 132.522 17.856C131.77 18.112 130.994 18.24 130.194 18.24ZM138.446 5.4H144.134C144.518 5.4 144.838 5.528 145.094 5.784C145.35 6.04 145.478 6.36 145.478 6.744C145.478 7.112 145.35 7.424 145.094 7.68C144.838 7.92 144.518 8.04 144.134 8.04H138.446C138.062 8.04 137.742 7.912 137.486 7.656C137.23 7.4 137.102 7.08 137.102 6.696C137.102 6.328 137.23 6.024 137.486 5.784C137.742 5.528 138.062 5.4 138.446 5.4ZM141.014 2.4C141.43 2.4 141.766 2.544 142.022 2.832C142.294 3.104 142.43 3.448 142.43 3.864V14.544C142.43 14.768 142.47 14.952 142.55 15.096C142.646 15.24 142.766 15.344 142.91 15.408C143.07 15.472 143.238 15.504 143.414 15.504C143.606 15.504 143.782 15.472 143.942 15.408C144.102 15.328 144.286 15.288 144.494 15.288C144.718 15.288 144.918 15.392 145.094 15.6C145.286 15.808 145.382 16.096 145.382 16.464C145.382 16.912 145.134 17.28 144.638 17.568C144.158 17.856 143.638 18 143.078 18C142.742 18 142.366 17.976 141.95 17.928C141.55 17.864 141.166 17.728 140.798 17.52C140.446 17.296 140.15 16.96 139.91 16.512C139.67 16.064 139.55 15.448 139.55 14.664V3.864C139.55 3.448 139.686 3.104 139.958 2.832C140.246 2.544 140.598 2.4 141.014 2.4Z" fill="#29313C"/>
<path d="M2.312 49C1.864 49 1.496 48.864 1.208 48.592C0.936 48.304 0.8 47.952 0.8 47.536V33.664C0.8 33.248 0.936 32.904 1.208 32.632C1.496 32.344 1.848 32.2 2.264 32.2H10.064C10.48 32.2 10.824 32.336 11.096 32.608C11.384 32.864 11.528 33.2 11.528 33.616C11.528 33.968 11.384 34.28 11.096 34.552C10.824 34.824 10.48 34.96 10.064 34.96H3.584L3.8 34.672V39.496L3.632 39.184H8.984C9.4 39.184 9.744 39.32 10.016 39.592C10.304 39.848 10.448 40.184 10.448 40.6C10.448 40.952 10.304 41.264 10.016 41.536C9.744 41.808 9.4 41.944 8.984 41.944H3.584L3.8 41.728V47.536C3.8 47.952 3.648 48.304 3.344 48.592C3.056 48.864 2.712 49 2.312 49ZM26.141 42.592C26.141 43.904 25.845 45.064 25.253 46.072C24.677 47.064 23.893 47.84 22.901 48.4C21.925 48.96 20.829 49.24 19.613 49.24C18.397 49.24 17.293 48.96 16.301 48.4C15.325 47.84 14.541 47.064 13.949 46.072C13.373 45.064 13.085 43.904 13.085 42.592C13.085 41.28 13.373 40.128 13.949 39.136C14.541 38.128 15.325 37.344 16.301 36.784C17.293 36.208 18.397 35.92 19.613 35.92C20.829 35.92 21.925 36.208 22.901 36.784C23.893 37.344 24.677 38.128 25.253 39.136C25.845 40.128 26.141 41.28 26.141 42.592ZM23.261 42.592C23.261 41.776 23.093 41.072 22.757 40.48C22.437 39.872 21.997 39.4 21.437 39.064C20.893 38.728 20.285 38.56 19.613 38.56C18.941 38.56 18.325 38.728 17.765 39.064C17.221 39.4 16.781 39.872 16.445 40.48C16.125 41.072 15.965 41.776 15.965 42.592C15.965 43.392 16.125 44.096 16.445 44.704C16.781 45.296 17.221 45.76 17.765 46.096C18.325 46.432 18.941 46.6 19.613 46.6C20.285 46.6 20.893 46.432 21.437 46.096C21.997 45.76 22.437 45.296 22.757 44.704C23.093 44.096 23.261 43.392 23.261 42.592ZM41.1176 42.592C41.1176 43.904 40.8216 45.064 40.2296 46.072C39.6536 47.064 38.8696 47.84 37.8776 48.4C36.9016 48.96 35.8056 49.24 34.5896 49.24C33.3736 49.24 32.2696 48.96 31.2776 48.4C30.3016 47.84 29.5176 47.064 28.9256 46.072C28.3496 45.064 28.0616 43.904 28.0616 42.592C28.0616 41.28 28.3496 40.128 28.9256 39.136C29.5176 38.128 30.3016 37.344 31.2776 36.784C32.2696 36.208 33.3736 35.92 34.5896 35.92C35.8056 35.92 36.9016 36.208 37.8776 36.784C38.8696 37.344 39.6536 38.128 40.2296 39.136C40.8216 40.128 41.1176 41.28 41.1176 42.592ZM38.2376 42.592C38.2376 41.776 38.0696 41.072 37.7336 40.48C37.4136 39.872 36.9736 39.4 36.4136 39.064C35.8696 38.728 35.2616 38.56 34.5896 38.56C33.9176 38.56 33.3016 38.728 32.7416 39.064C32.1976 39.4 31.7576 39.872 31.4216 40.48C31.1016 41.072 30.9416 41.776 30.9416 42.592C30.9416 43.392 31.1016 44.096 31.4216 44.704C31.7576 45.296 32.1976 45.76 32.7416 46.096C33.3016 46.432 33.9176 46.6 34.5896 46.6C35.2616 46.6 35.8696 46.432 36.4136 46.096C36.9736 45.76 37.4136 45.296 37.7336 44.704C38.0696 44.096 38.2376 43.392 38.2376 42.592ZM54.1501 31.24C54.5661 31.24 54.9101 31.376 55.1821 31.648C55.4541 31.92 55.5901 32.272 55.5901 32.704V47.536C55.5901 47.952 55.4541 48.304 55.1821 48.592C54.9101 48.864 54.5661 49 54.1501 49C53.7341 49 53.3901 48.864 53.1181 48.592C52.8461 48.304 52.7101 47.952 52.7101 47.536V46.36L53.2381 46.576C53.2381 46.784 53.1261 47.04 52.9021 47.344C52.6781 47.632 52.3741 47.92 51.9901 48.208C51.6061 48.496 51.1501 48.744 50.6221 48.952C50.1101 49.144 49.5501 49.24 48.9421 49.24C47.8381 49.24 46.8381 48.96 45.9421 48.4C45.0461 47.824 44.3341 47.04 43.8061 46.048C43.2941 45.04 43.0381 43.888 43.0381 42.592C43.0381 41.28 43.2941 40.128 43.8061 39.136C44.3341 38.128 45.0381 37.344 45.9181 36.784C46.7981 36.208 47.7741 35.92 48.8461 35.92C49.5341 35.92 50.1661 36.024 50.7421 36.232C51.3181 36.44 51.8141 36.704 52.2301 37.024C52.6621 37.344 52.9901 37.672 53.2141 38.008C53.4541 38.328 53.5741 38.6 53.5741 38.824L52.7101 39.136V32.704C52.7101 32.288 52.8461 31.944 53.1181 31.672C53.3901 31.384 53.7341 31.24 54.1501 31.24ZM49.3021 46.6C50.0061 46.6 50.6221 46.424 51.1501 46.072C51.6781 45.72 52.0861 45.24 52.3741 44.632C52.6781 44.024 52.8301 43.344 52.8301 42.592C52.8301 41.824 52.6781 41.136 52.3741 40.528C52.0861 39.92 51.6781 39.44 51.1501 39.088C50.6221 38.736 50.0061 38.56 49.3021 38.56C48.6141 38.56 48.0061 38.736 47.4781 39.088C46.9501 39.44 46.5341 39.92 46.2301 40.528C45.9421 41.136 45.7981 41.824 45.7981 42.592C45.7981 43.344 45.9421 44.024 46.2301 44.632C46.5341 45.24 46.9501 45.72 47.4781 46.072C48.0061 46.424 48.6141 46.6 49.3021 46.6ZM72.875 32.2C74.027 32.2 75.051 32.416 75.947 32.848C76.843 33.28 77.595 33.888 78.203 34.672C78.827 35.44 79.291 36.336 79.595 37.36C79.915 38.368 80.075 39.448 80.075 40.6C80.075 42.152 79.795 43.568 79.235 44.848C78.675 46.112 77.859 47.12 76.787 47.872C75.731 48.624 74.427 49 72.875 49H67.139C66.723 49 66.371 48.864 66.083 48.592C65.811 48.304 65.675 47.952 65.675 47.536V33.664C65.675 33.248 65.811 32.904 66.083 32.632C66.371 32.344 66.723 32.2 67.139 32.2H72.875ZM72.635 46.24C73.643 46.24 74.467 45.984 75.107 45.472C75.747 44.944 76.211 44.256 76.499 43.408C76.803 42.544 76.955 41.608 76.955 40.6C76.955 39.848 76.867 39.136 76.691 38.464C76.531 37.776 76.275 37.176 75.923 36.664C75.571 36.136 75.123 35.72 74.579 35.416C74.035 35.112 73.387 34.96 72.635 34.96H68.435L68.675 34.744V46.504L68.531 46.24H72.635ZM88.8268 49.24C87.4668 49.24 86.2828 48.96 85.2748 48.4C84.2828 47.824 83.5148 47.048 82.9708 46.072C82.4428 45.096 82.1788 43.992 82.1788 42.76C82.1788 41.32 82.4668 40.096 83.0428 39.088C83.6348 38.064 84.4028 37.28 85.3468 36.736C86.2908 36.192 87.2908 35.92 88.3468 35.92C89.1628 35.92 89.9308 36.088 90.6508 36.424C91.3868 36.76 92.0348 37.224 92.5948 37.816C93.1548 38.392 93.5948 39.064 93.9148 39.832C94.2508 40.6 94.4188 41.416 94.4188 42.28C94.4028 42.664 94.2508 42.976 93.9628 43.216C93.6748 43.456 93.3388 43.576 92.9548 43.576H83.7868L83.0668 41.176H91.8748L91.3468 41.656V41.008C91.3148 40.544 91.1468 40.128 90.8428 39.76C90.5548 39.392 90.1868 39.104 89.7388 38.896C89.3068 38.672 88.8428 38.56 88.3468 38.56C87.8668 38.56 87.4188 38.624 87.0028 38.752C86.5868 38.88 86.2268 39.096 85.9228 39.4C85.6188 39.704 85.3788 40.112 85.2028 40.624C85.0268 41.136 84.9388 41.784 84.9388 42.568C84.9388 43.432 85.1148 44.168 85.4668 44.776C85.8348 45.368 86.2988 45.824 86.8588 46.144C87.4348 46.448 88.0428 46.6 88.6828 46.6C89.2748 46.6 89.7468 46.552 90.0988 46.456C90.4508 46.36 90.7308 46.248 90.9388 46.12C91.1628 45.976 91.3628 45.856 91.5388 45.76C91.8268 45.616 92.0988 45.544 92.3548 45.544C92.7068 45.544 92.9948 45.664 93.2188 45.904C93.4588 46.144 93.5788 46.424 93.5788 46.744C93.5788 47.176 93.3548 47.568 92.9068 47.92C92.4908 48.272 91.9068 48.584 91.1548 48.856C90.4028 49.112 89.6268 49.24 88.8268 49.24ZM100.055 47.536C100.055 47.952 99.911 48.304 99.623 48.592C99.351 48.864 99.007 49 98.591 49C98.191 49 97.855 48.864 97.583 48.592C97.311 48.304 97.175 47.952 97.175 47.536V32.704C97.175 32.288 97.311 31.944 97.583 31.672C97.871 31.384 98.223 31.24 98.639 31.24C99.055 31.24 99.391 31.384 99.647 31.672C99.919 31.944 100.055 32.288 100.055 32.704V47.536ZM106.116 47.536C106.116 47.952 105.98 48.304 105.708 48.592C105.436 48.864 105.092 49 104.676 49C104.26 49 103.916 48.864 103.644 48.592C103.372 48.304 103.236 47.952 103.236 47.536V37.624C103.236 37.208 103.372 36.864 103.644 36.592C103.916 36.304 104.26 36.16 104.676 36.16C105.092 36.16 105.436 36.304 105.708 36.592C105.98 36.864 106.116 37.208 106.116 37.624V47.536ZM104.652 34.6C104.108 34.6 103.724 34.512 103.5 34.336C103.276 34.16 103.164 33.848 103.164 33.4V32.944C103.164 32.48 103.284 32.168 103.524 32.008C103.78 31.832 104.164 31.744 104.676 31.744C105.236 31.744 105.628 31.832 105.852 32.008C106.076 32.184 106.188 32.496 106.188 32.944V33.4C106.188 33.864 106.068 34.184 105.828 34.36C105.588 34.52 105.196 34.6 104.652 34.6ZM109.652 36.16C109.956 36.16 110.236 36.24 110.492 36.4C110.748 36.544 110.94 36.768 111.068 37.072L114.596 45.136L114.068 45.376L117.668 37.096C117.94 36.456 118.364 36.152 118.94 36.184C119.34 36.184 119.66 36.312 119.9 36.568C120.156 36.808 120.284 37.112 120.284 37.48C120.284 37.592 120.26 37.712 120.212 37.84C120.18 37.968 120.14 38.088 120.092 38.2L115.604 48.088C115.348 48.664 114.94 48.968 114.38 49C114.076 49.048 113.78 48.992 113.492 48.832C113.22 48.672 113.012 48.424 112.868 48.088L108.404 38.2C108.372 38.12 108.332 38.016 108.284 37.888C108.252 37.76 108.236 37.608 108.236 37.432C108.236 37.144 108.364 36.864 108.62 36.592C108.876 36.304 109.22 36.16 109.652 36.16ZM128.483 49.24C127.123 49.24 125.939 48.96 124.931 48.4C123.939 47.824 123.171 47.048 122.627 46.072C122.099 45.096 121.835 43.992 121.835 42.76C121.835 41.32 122.123 40.096 122.699 39.088C123.291 38.064 124.059 37.28 125.003 36.736C125.947 36.192 126.947 35.92 128.003 35.92C128.819 35.92 129.587 36.088 130.307 36.424C131.043 36.76 131.691 37.224 132.251 37.816C132.811 38.392 133.251 39.064 133.571 39.832C133.907 40.6 134.075 41.416 134.075 42.28C134.059 42.664 133.907 42.976 133.619 43.216C133.331 43.456 132.995 43.576 132.611 43.576H123.443L122.723 41.176H131.531L131.003 41.656V41.008C130.971 40.544 130.803 40.128 130.499 39.76C130.211 39.392 129.843 39.104 129.395 38.896C128.963 38.672 128.499 38.56 128.003 38.56C127.523 38.56 127.075 38.624 126.659 38.752C126.243 38.88 125.883 39.096 125.579 39.4C125.275 39.704 125.035 40.112 124.859 40.624C124.683 41.136 124.595 41.784 124.595 42.568C124.595 43.432 124.771 44.168 125.123 44.776C125.491 45.368 125.955 45.824 126.515 46.144C127.091 46.448 127.699 46.6 128.339 46.6C128.931 46.6 129.403 46.552 129.755 46.456C130.107 46.36 130.387 46.248 130.595 46.12C130.819 45.976 131.019 45.856 131.195 45.76C131.483 45.616 131.755 45.544 132.011 45.544C132.363 45.544 132.651 45.664 132.875 45.904C133.115 46.144 133.235 46.424 133.235 46.744C133.235 47.176 133.011 47.568 132.563 47.92C132.147 48.272 131.563 48.584 130.811 48.856C130.059 49.112 129.283 49.24 128.483 49.24ZM138.031 49C137.615 49 137.271 48.864 136.999 48.592C136.727 48.304 136.591 47.952 136.591 47.536V37.624C136.591 37.208 136.727 36.864 136.999 36.592C137.271 36.304 137.615 36.16 138.031 36.16C138.447 36.16 138.791 36.304 139.063 36.592C139.335 36.864 139.471 37.208 139.471 37.624V39.88L139.303 38.272C139.479 37.888 139.703 37.552 139.975 37.264C140.263 36.96 140.583 36.712 140.935 36.52C141.287 36.312 141.663 36.16 142.063 36.064C142.463 35.968 142.863 35.92 143.263 35.92C143.743 35.92 144.143 36.056 144.463 36.328C144.799 36.6 144.967 36.92 144.967 37.288C144.967 37.816 144.831 38.2 144.559 38.44C144.287 38.664 143.991 38.776 143.671 38.776C143.367 38.776 143.087 38.72 142.831 38.608C142.591 38.496 142.311 38.44 141.991 38.44C141.703 38.44 141.407 38.512 141.103 38.656C140.815 38.784 140.543 38.992 140.287 39.28C140.047 39.568 139.847 39.928 139.687 40.36C139.543 40.776 139.471 41.272 139.471 41.848V47.536C139.471 47.952 139.335 48.304 139.063 48.592C138.791 48.864 138.447 49 138.031 49ZM156.526 36.16C156.942 36.16 157.286 36.304 157.557 36.592C157.83 36.864 157.966 37.208 157.966 37.624V47.824C157.966 49.296 157.686 50.464 157.126 51.328C156.582 52.208 155.846 52.84 154.918 53.224C153.99 53.608 152.95 53.8 151.798 53.8C151.286 53.8 150.742 53.76 150.166 53.68C149.59 53.6 149.118 53.48 148.75 53.32C148.27 53.112 147.934 52.848 147.742 52.528C147.566 52.224 147.534 51.896 147.646 51.544C147.79 51.08 148.022 50.76 148.342 50.584C148.662 50.424 148.998 50.408 149.35 50.536C149.606 50.616 149.942 50.736 150.358 50.896C150.774 51.072 151.254 51.16 151.798 51.16C152.534 51.16 153.142 51.056 153.622 50.848C154.118 50.656 154.486 50.32 154.726 49.84C154.982 49.376 155.11 48.736 155.11 47.92V46.312L155.614 46.888C155.342 47.416 154.998 47.856 154.582 48.208C154.182 48.544 153.702 48.8 153.142 48.976C152.582 49.152 151.942 49.24 151.222 49.24C150.374 49.24 149.63 49.048 148.99 48.664C148.366 48.264 147.878 47.72 147.526 47.032C147.174 46.328 146.998 45.528 146.998 44.632V37.624C146.998 37.208 147.134 36.864 147.406 36.592C147.678 36.304 148.022 36.16 148.438 36.16C148.854 36.16 149.198 36.304 149.47 36.592C149.742 36.864 149.878 37.208 149.878 37.624V43.768C149.878 44.808 150.102 45.544 150.55 45.976C151.014 46.392 151.654 46.6 152.47 46.6C153.03 46.6 153.502 46.496 153.886 46.288C154.27 46.064 154.566 45.744 154.774 45.328C154.982 44.896 155.086 44.376 155.086 43.768V37.624C155.086 37.208 155.222 36.864 155.494 36.592C155.766 36.304 156.11 36.16 156.526 36.16Z" fill="#FF5E95"/>
</svg>
