<svg width="197" height="54" viewBox="0 0 197 54" fill="none" xmlns="http://www.w3.org/2000/svg">
<path d="M7.65575 1.2C9.19175 1.2 10.3358 1.56 11.0878 2.28C11.8398 3 12.2158 4.064 12.2158 5.472C12.2158 6.224 12.0318 6.888 11.6638 7.464C11.2958 8.024 10.7518 8.464 10.0318 8.784C9.31175 9.088 8.42375 9.24 7.36775 9.24L7.46375 8.16C7.95975 8.16 8.52775 8.232 9.16775 8.376C9.80775 8.504 10.4238 8.744 11.0157 9.096C11.6238 9.432 12.1198 9.912 12.5038 10.536C12.9038 11.144 13.1038 11.928 13.1038 12.888C13.1038 13.944 12.9278 14.808 12.5758 15.48C12.2398 16.152 11.7918 16.672 11.2318 17.04C10.6718 17.408 10.0718 17.664 9.43175 17.808C8.79175 17.936 8.17575 18 7.58375 18H1.60775C1.19175 18 0.83975 17.864 0.55175 17.592C0.27975 17.304 0.14375 16.952 0.14375 16.536V2.664C0.14375 2.248 0.27975 1.904 0.55175 1.632C0.83975 1.344 1.19175 1.2 1.60775 1.2H7.65575ZM7.22375 4.032H2.95175L3.26375 3.648V7.992L2.97575 7.776H7.29575C7.75975 7.776 8.17575 7.624 8.54375 7.32C8.91175 7.016 9.09575 6.576 9.09575 6C9.09575 5.312 8.91975 4.816 8.56775 4.512C8.23175 4.192 7.78375 4.032 7.22375 4.032ZM7.41575 10.608H3.04775L3.26375 10.416V15.48L3.02375 15.24H7.58375C8.31975 15.24 8.90375 15.048 9.33575 14.664C9.76775 14.264 9.98375 13.672 9.98375 12.888C9.98375 12.168 9.83975 11.648 9.55175 11.328C9.26375 11.008 8.91975 10.808 8.51975 10.728C8.11975 10.648 7.75175 10.608 7.41575 10.608ZM28.0629 11.592C28.0629 12.904 27.7669 14.064 27.1749 15.072C26.5989 16.064 25.8149 16.84 24.8229 17.4C23.8469 17.96 22.7509 18.24 21.5349 18.24C20.3189 18.24 19.2149 17.96 18.2229 17.4C17.2469 16.84 16.4629 16.064 15.8709 15.072C15.2949 14.064 15.0069 12.904 15.0069 11.592C15.0069 10.28 15.2949 9.128 15.8709 8.136C16.4629 7.128 17.2469 6.344 18.2229 5.784C19.2149 5.208 20.3189 4.92 21.5349 4.92C22.7509 4.92 23.8469 5.208 24.8229 5.784C25.8149 6.344 26.5989 7.128 27.1749 8.136C27.7669 9.128 28.0629 10.28 28.0629 11.592ZM25.1829 11.592C25.1829 10.776 25.0149 10.072 24.6789 9.48C24.3589 8.872 23.9189 8.4 23.3589 8.064C22.8149 7.728 22.2069 7.56 21.5349 7.56C20.8629 7.56 20.2469 7.728 19.6869 8.064C19.1429 8.4 18.7029 8.872 18.3669 9.48C18.0469 10.072 17.8869 10.776 17.8869 11.592C17.8869 12.392 18.0469 13.096 18.3669 13.704C18.7029 14.296 19.1429 14.76 19.6869 15.096C20.2469 15.432 20.8629 15.6 21.5349 15.6C22.2069 15.6 22.8149 15.432 23.3589 15.096C23.9189 14.76 24.3589 14.296 24.6789 13.704C25.0149 13.096 25.1829 12.392 25.1829 11.592ZM43.0394 11.592C43.0394 12.904 42.7434 14.064 42.1514 15.072C41.5754 16.064 40.7914 16.84 39.7994 17.4C38.8234 17.96 37.7274 18.24 36.5114 18.24C35.2954 18.24 34.1914 17.96 33.1994 17.4C32.2234 16.84 31.4394 16.064 30.8474 15.072C30.2714 14.064 29.9834 12.904 29.9834 11.592C29.9834 10.28 30.2714 9.128 30.8474 8.136C31.4394 7.128 32.2234 6.344 33.1994 5.784C34.1914 5.208 35.2954 4.92 36.5114 4.92C37.7274 4.92 38.8234 5.208 39.7994 5.784C40.7914 6.344 41.5754 7.128 42.1514 8.136C42.7434 9.128 43.0394 10.28 43.0394 11.592ZM40.1594 11.592C40.1594 10.776 39.9914 10.072 39.6554 9.48C39.3354 8.872 38.8954 8.4 38.3354 8.064C37.7914 7.728 37.1834 7.56 36.5114 7.56C35.8394 7.56 35.2234 7.728 34.6634 8.064C34.1194 8.4 33.6794 8.872 33.3434 9.48C33.0234 10.072 32.8634 10.776 32.8634 11.592C32.8634 12.392 33.0234 13.096 33.3434 13.704C33.6794 14.296 34.1194 14.76 34.6634 15.096C35.2234 15.432 35.8394 15.6 36.5114 15.6C37.1834 15.6 37.7914 15.432 38.3354 15.096C38.8954 14.76 39.3354 14.296 39.6554 13.704C39.9914 13.096 40.1594 12.392 40.1594 11.592ZM47.24 18C46.824 18 46.48 17.864 46.208 17.592C45.936 17.304 45.8 16.952 45.8 16.536V1.704C45.8 1.288 45.936 0.943999 46.208 0.671999C46.48 0.383999 46.824 0.24 47.24 0.24C47.656 0.24 48 0.383999 48.272 0.671999C48.544 0.943999 48.68 1.288 48.68 1.704V16.536C48.68 16.952 48.544 17.304 48.272 17.592C48 17.864 47.656 18 47.24 18ZM54.872 5.16C55.24 5.16 55.56 5.312 55.832 5.616C56.104 5.92 56.24 6.216 56.24 6.504C56.24 6.888 56.048 7.248 55.664 7.584L48.44 14.232L48.32 10.92L53.816 5.616C54.12 5.312 54.472 5.16 54.872 5.16ZM55.232 17.976C54.816 17.976 54.464 17.816 54.176 17.496L49.736 12.792L51.92 10.776L56.24 15.48C56.544 15.8 56.696 16.16 56.696 16.56C56.696 16.976 56.528 17.32 56.192 17.592C55.872 17.848 55.552 17.976 55.232 17.976ZM35.9775 35.92C37.0975 35.92 38.0975 36.208 38.9775 36.784C39.8735 37.344 40.5775 38.12 41.0895 39.112C41.6175 40.104 41.8815 41.256 41.8815 42.568C41.8815 43.88 41.6175 45.04 41.0895 46.048C40.5775 47.04 39.8815 47.824 39.0015 48.4C38.1375 48.96 37.1615 49.24 36.0735 49.24C35.4335 49.24 34.8335 49.136 34.2735 48.928C33.7135 48.72 33.2175 48.456 32.7855 48.136C32.3695 47.816 32.0415 47.496 31.8015 47.176C31.5775 46.84 31.4655 46.56 31.4655 46.336L32.2095 46.024V52.336C32.2095 52.752 32.0735 53.096 31.8015 53.368C31.5295 53.656 31.1855 53.8 30.7695 53.8C30.3535 53.8 30.0095 53.664 29.7375 53.392C29.4655 53.12 29.3295 52.768 29.3295 52.336V37.624C29.3295 37.208 29.4655 36.864 29.7375 36.592C30.0095 36.304 30.3535 36.16 30.7695 36.16C31.1855 36.16 31.5295 36.304 31.8015 36.592C32.0735 36.864 32.2095 37.208 32.2095 37.624V38.8L31.8015 38.584C31.8015 38.376 31.9135 38.128 32.1375 37.84C32.3615 37.536 32.6655 37.24 33.0495 36.952C33.4335 36.648 33.8735 36.4 34.3695 36.208C34.8815 36.016 35.4175 35.92 35.9775 35.92ZM35.6175 38.56C34.9135 38.56 34.2975 38.736 33.7695 39.088C33.2415 39.44 32.8255 39.92 32.5215 40.528C32.2335 41.12 32.0895 41.8 32.0895 42.568C32.0895 43.32 32.2335 44.008 32.5215 44.632C32.8255 45.24 33.2415 45.72 33.7695 46.072C34.2975 46.424 34.9135 46.6 35.6175 46.6C36.3215 46.6 36.9295 46.424 37.4415 46.072C37.9695 45.72 38.3775 45.24 38.6655 44.632C38.9695 44.008 39.1215 43.32 39.1215 42.568C39.1215 41.8 38.9695 41.12 38.6655 40.528C38.3775 39.92 37.9695 39.44 37.4415 39.088C36.9295 38.736 36.3215 38.56 35.6175 38.56ZM50.4478 49.24C49.0878 49.24 47.9038 48.96 46.8958 48.4C45.9038 47.824 45.1358 47.048 44.5918 46.072C44.0638 45.096 43.7998 43.992 43.7998 42.76C43.7998 41.32 44.0878 40.096 44.6638 39.088C45.2558 38.064 46.0238 37.28 46.9678 36.736C47.9118 36.192 48.9118 35.92 49.9678 35.92C50.7838 35.92 51.5518 36.088 52.2718 36.424C53.0078 36.76 53.6558 37.224 54.2158 37.816C54.7758 38.392 55.2158 39.064 55.5358 39.832C55.8718 40.6 56.0398 41.416 56.0398 42.28C56.0238 42.664 55.8718 42.976 55.5838 43.216C55.2958 43.456 54.9598 43.576 54.5758 43.576H45.4078L44.6878 41.176H53.4958L52.9678 41.656V41.008C52.9358 40.544 52.7678 40.128 52.4638 39.76C52.1758 39.392 51.8078 39.104 51.3598 38.896C50.9278 38.672 50.4638 38.56 49.9678 38.56C49.4878 38.56 49.0398 38.624 48.6238 38.752C48.2078 38.88 47.8478 39.096 47.5438 39.4C47.2398 39.704 46.9998 40.112 46.8238 40.624C46.6478 41.136 46.5598 41.784 46.5598 42.568C46.5598 43.432 46.7358 44.168 47.0878 44.776C47.4558 45.368 47.9198 45.824 48.4798 46.144C49.0558 46.448 49.6638 46.6 50.3038 46.6C50.8958 46.6 51.3678 46.552 51.7198 46.456C52.0718 46.36 52.3518 46.248 52.5598 46.12C52.7838 45.976 52.9838 45.856 53.1598 45.76C53.4478 45.616 53.7198 45.544 53.9758 45.544C54.3278 45.544 54.6158 45.664 54.8398 45.904C55.0798 46.144 55.1998 46.424 55.1998 46.744C55.1998 47.176 54.9758 47.568 54.5278 47.92C54.1118 48.272 53.5278 48.584 52.7758 48.856C52.0238 49.112 51.2478 49.24 50.4478 49.24ZM58.7001 36.4H64.3881C64.7721 36.4 65.0921 36.528 65.3481 36.784C65.6041 37.04 65.7321 37.36 65.7321 37.744C65.7321 38.112 65.6041 38.424 65.3481 38.68C65.0921 38.92 64.7721 39.04 64.3881 39.04H58.7001C58.3161 39.04 57.9961 38.912 57.7401 38.656C57.4841 38.4 57.3561 38.08 57.3561 37.696C57.3561 37.328 57.4841 37.024 57.7401 36.784C57.9961 36.528 58.3161 36.4 58.7001 36.4ZM61.2681 33.4C61.6841 33.4 62.0201 33.544 62.2761 33.832C62.5481 34.104 62.6841 34.448 62.6841 34.864V45.544C62.6841 45.768 62.7241 45.952 62.8041 46.096C62.9001 46.24 63.0201 46.344 63.1641 46.408C63.3241 46.472 63.4921 46.504 63.6681 46.504C63.8601 46.504 64.0361 46.472 64.1961 46.408C64.3561 46.328 64.5401 46.288 64.7481 46.288C64.9721 46.288 65.1721 46.392 65.3481 46.6C65.5401 46.808 65.6361 47.096 65.6361 47.464C65.6361 47.912 65.3881 48.28 64.8921 48.568C64.4121 48.856 63.8921 49 63.3321 49C62.9961 49 62.6201 48.976 62.2041 48.928C61.8041 48.864 61.4201 48.728 61.0521 48.52C60.7001 48.296 60.4041 47.96 60.1641 47.512C59.9241 47.064 59.8041 46.448 59.8041 45.664V34.864C59.8041 34.448 59.9401 34.104 60.2121 33.832C60.5001 33.544 60.8521 33.4 61.2681 33.4ZM74.359 47.008C74.199 46.784 74.127 46.496 74.143 46.144C74.159 45.792 74.367 45.488 74.767 45.232C75.023 45.072 75.295 45.008 75.583 45.04C75.871 45.056 76.151 45.2 76.423 45.472C76.887 45.936 77.375 46.296 77.887 46.552C78.399 46.808 79.039 46.936 79.807 46.936C80.047 46.92 80.311 46.888 80.599 46.84C80.887 46.776 81.135 46.648 81.343 46.456C81.567 46.248 81.679 45.936 81.679 45.52C81.679 45.168 81.559 44.888 81.319 44.68C81.079 44.472 80.759 44.296 80.359 44.152C79.975 44.008 79.543 43.872 79.063 43.744C78.567 43.6 78.055 43.44 77.527 43.264C77.015 43.088 76.543 42.864 76.111 42.592C75.679 42.304 75.327 41.928 75.055 41.464C74.783 41 74.647 40.416 74.647 39.712C74.647 38.912 74.871 38.232 75.319 37.672C75.767 37.112 76.343 36.68 77.047 36.376C77.767 36.072 78.519 35.92 79.303 35.92C79.799 35.92 80.319 35.984 80.863 36.112C81.407 36.224 81.927 36.416 82.423 36.688C82.919 36.944 83.335 37.288 83.671 37.72C83.847 37.96 83.951 38.248 83.983 38.584C84.015 38.92 83.863 39.224 83.527 39.496C83.287 39.688 83.007 39.776 82.687 39.76C82.367 39.728 82.103 39.616 81.895 39.424C81.623 39.072 81.255 38.792 80.791 38.584C80.343 38.376 79.823 38.272 79.231 38.272C78.991 38.272 78.727 38.304 78.439 38.368C78.167 38.416 77.927 38.536 77.719 38.728C77.511 38.904 77.407 39.192 77.407 39.592C77.407 39.96 77.527 40.256 77.767 40.48C78.007 40.688 78.327 40.864 78.727 41.008C79.143 41.136 79.583 41.264 80.047 41.392C80.527 41.52 81.015 41.672 81.511 41.848C82.007 42.024 82.463 42.256 82.879 42.544C83.295 42.832 83.631 43.208 83.887 43.672C84.143 44.12 84.271 44.696 84.271 45.4C84.271 46.216 84.031 46.912 83.551 47.488C83.071 48.064 82.471 48.504 81.751 48.808C81.031 49.096 80.295 49.24 79.543 49.24C78.599 49.24 77.655 49.08 76.711 48.76C75.767 48.424 74.983 47.84 74.359 47.008ZM92.7291 49.24C91.3691 49.24 90.1851 48.96 89.1771 48.4C88.1851 47.824 87.4171 47.048 86.8731 46.072C86.3451 45.096 86.0811 43.992 86.0811 42.76C86.0811 41.32 86.3691 40.096 86.9451 39.088C87.5371 38.064 88.3051 37.28 89.2491 36.736C90.1931 36.192 91.1931 35.92 92.2491 35.92C93.0651 35.92 93.8331 36.088 94.5531 36.424C95.2891 36.76 95.9371 37.224 96.4971 37.816C97.0571 38.392 97.4971 39.064 97.8171 39.832C98.1531 40.6 98.3211 41.416 98.3211 42.28C98.3051 42.664 98.1531 42.976 97.8651 43.216C97.5771 43.456 97.2411 43.576 96.8571 43.576H87.6891L86.9691 41.176H95.7771L95.2491 41.656V41.008C95.2171 40.544 95.0491 40.128 94.7451 39.76C94.4571 39.392 94.0891 39.104 93.6411 38.896C93.2091 38.672 92.7451 38.56 92.2491 38.56C91.7691 38.56 91.3211 38.624 90.9051 38.752C90.4891 38.88 90.1291 39.096 89.8251 39.4C89.5211 39.704 89.2811 40.112 89.1051 40.624C88.9291 41.136 88.8411 41.784 88.8411 42.568C88.8411 43.432 89.0171 44.168 89.3691 44.776C89.7371 45.368 90.2011 45.824 90.7611 46.144C91.3371 46.448 91.9451 46.6 92.5851 46.6C93.1771 46.6 93.6491 46.552 94.0011 46.456C94.3531 46.36 94.6331 46.248 94.8411 46.12C95.0651 45.976 95.2651 45.856 95.4411 45.76C95.7291 45.616 96.0011 45.544 96.2571 45.544C96.6091 45.544 96.8971 45.664 97.1211 45.904C97.3611 46.144 97.4811 46.424 97.4811 46.744C97.4811 47.176 97.2571 47.568 96.8091 47.92C96.3931 48.272 95.8091 48.584 95.0571 48.856C94.3051 49.112 93.5291 49.24 92.7291 49.24ZM102.277 49C101.861 49 101.517 48.864 101.245 48.592C100.973 48.304 100.837 47.952 100.837 47.536V37.624C100.837 37.208 100.973 36.864 101.245 36.592C101.517 36.304 101.861 36.16 102.277 36.16C102.693 36.16 103.037 36.304 103.309 36.592C103.581 36.864 103.717 37.208 103.717 37.624V39.88L103.549 38.272C103.725 37.888 103.949 37.552 104.221 37.264C104.509 36.96 104.829 36.712 105.181 36.52C105.533 36.312 105.909 36.16 106.309 36.064C106.709 35.968 107.109 35.92 107.509 35.92C107.989 35.92 108.389 36.056 108.709 36.328C109.045 36.6 109.213 36.92 109.213 37.288C109.213 37.816 109.077 38.2 108.805 38.44C108.533 38.664 108.237 38.776 107.917 38.776C107.613 38.776 107.333 38.72 107.077 38.608C106.837 38.496 106.557 38.44 106.237 38.44C105.949 38.44 105.653 38.512 105.349 38.656C105.061 38.784 104.789 38.992 104.533 39.28C104.293 39.568 104.093 39.928 103.933 40.36C103.789 40.776 103.717 41.272 103.717 41.848V47.536C103.717 47.952 103.581 48.304 103.309 48.592C103.037 48.864 102.693 49 102.277 49ZM113.015 36.16C113.319 36.16 113.599 36.24 113.855 36.4C114.111 36.544 114.303 36.768 114.431 37.072L117.959 45.136L117.431 45.376L121.031 37.096C121.303 36.456 121.727 36.152 122.303 36.184C122.703 36.184 123.023 36.312 123.263 36.568C123.519 36.808 123.647 37.112 123.647 37.48C123.647 37.592 123.623 37.712 123.575 37.84C123.543 37.968 123.503 38.088 123.455 38.2L118.967 48.088C118.711 48.664 118.303 48.968 117.743 49C117.439 49.048 117.143 48.992 116.855 48.832C116.583 48.672 116.375 48.424 116.231 48.088L111.767 38.2C111.735 38.12 111.695 38.016 111.647 37.888C111.615 37.76 111.599 37.608 111.599 37.432C111.599 37.144 111.727 36.864 111.983 36.592C112.239 36.304 112.583 36.16 113.015 36.16ZM128.627 47.536C128.627 47.952 128.491 48.304 128.219 48.592C127.947 48.864 127.603 49 127.187 49C126.771 49 126.427 48.864 126.155 48.592C125.883 48.304 125.747 47.952 125.747 47.536V37.624C125.747 37.208 125.883 36.864 126.155 36.592C126.427 36.304 126.771 36.16 127.187 36.16C127.603 36.16 127.947 36.304 128.219 36.592C128.491 36.864 128.627 37.208 128.627 37.624V47.536ZM127.163 34.6C126.619 34.6 126.235 34.512 126.011 34.336C125.787 34.16 125.675 33.848 125.675 33.4V32.944C125.675 32.48 125.795 32.168 126.035 32.008C126.291 31.832 126.675 31.744 127.187 31.744C127.747 31.744 128.139 31.832 128.363 32.008C128.587 32.184 128.699 32.496 128.699 32.944V33.4C128.699 33.864 128.579 34.184 128.339 34.36C128.099 34.52 127.707 34.6 127.163 34.6ZM137.299 35.92C138.211 35.92 139.003 36.016 139.675 36.208C140.363 36.4 140.891 36.672 141.259 37.024C141.643 37.36 141.835 37.768 141.835 38.248C141.835 38.568 141.739 38.872 141.547 39.16C141.355 39.432 141.075 39.568 140.707 39.568C140.451 39.568 140.235 39.536 140.059 39.472C139.899 39.392 139.755 39.296 139.627 39.184C139.499 39.072 139.347 38.968 139.171 38.872C139.011 38.776 138.763 38.704 138.427 38.656C138.107 38.592 137.867 38.56 137.707 38.56C136.891 38.56 136.195 38.736 135.619 39.088C135.059 39.44 134.627 39.92 134.323 40.528C134.019 41.12 133.867 41.808 133.867 42.592C133.867 43.36 134.019 44.048 134.323 44.656C134.643 45.248 135.075 45.72 135.619 46.072C136.179 46.424 136.819 46.6 137.539 46.6C137.939 46.6 138.283 46.576 138.571 46.528C138.859 46.48 139.099 46.408 139.291 46.312C139.515 46.184 139.715 46.048 139.891 45.904C140.067 45.76 140.331 45.688 140.683 45.688C141.099 45.688 141.419 45.824 141.643 46.096C141.867 46.352 141.979 46.672 141.979 47.056C141.979 47.456 141.755 47.824 141.307 48.16C140.859 48.48 140.267 48.744 139.531 48.952C138.811 49.144 138.027 49.24 137.179 49.24C135.915 49.24 134.819 48.952 133.891 48.376C132.963 47.784 132.243 46.984 131.731 45.976C131.235 44.968 130.987 43.84 130.987 42.592C130.987 41.28 131.251 40.128 131.779 39.136C132.323 38.128 133.067 37.344 134.011 36.784C134.971 36.208 136.067 35.92 137.299 35.92ZM150.104 49.24C148.744 49.24 147.56 48.96 146.552 48.4C145.56 47.824 144.792 47.048 144.248 46.072C143.72 45.096 143.456 43.992 143.456 42.76C143.456 41.32 143.744 40.096 144.32 39.088C144.912 38.064 145.68 37.28 146.624 36.736C147.568 36.192 148.568 35.92 149.624 35.92C150.44 35.92 151.208 36.088 151.928 36.424C152.664 36.76 153.312 37.224 153.872 37.816C154.432 38.392 154.872 39.064 155.192 39.832C155.528 40.6 155.696 41.416 155.696 42.28C155.68 42.664 155.528 42.976 155.24 43.216C154.952 43.456 154.616 43.576 154.232 43.576H145.064L144.344 41.176H153.152L152.624 41.656V41.008C152.592 40.544 152.424 40.128 152.12 39.76C151.832 39.392 151.464 39.104 151.016 38.896C150.584 38.672 150.12 38.56 149.624 38.56C149.144 38.56 148.696 38.624 148.28 38.752C147.864 38.88 147.504 39.096 147.2 39.4C146.896 39.704 146.656 40.112 146.48 40.624C146.304 41.136 146.216 41.784 146.216 42.568C146.216 43.432 146.392 44.168 146.744 44.776C147.112 45.368 147.576 45.824 148.136 46.144C148.712 46.448 149.32 46.6 149.96 46.6C150.552 46.6 151.024 46.552 151.376 46.456C151.728 46.36 152.008 46.248 152.216 46.12C152.44 45.976 152.64 45.856 152.816 45.76C153.104 45.616 153.376 45.544 153.632 45.544C153.984 45.544 154.272 45.664 154.496 45.904C154.736 46.144 154.856 46.424 154.856 46.744C154.856 47.176 154.632 47.568 154.184 47.92C153.768 48.272 153.184 48.584 152.432 48.856C151.68 49.112 150.904 49.24 150.104 49.24ZM157.468 47.008C157.308 46.784 157.236 46.496 157.252 46.144C157.268 45.792 157.476 45.488 157.876 45.232C158.132 45.072 158.404 45.008 158.692 45.04C158.98 45.056 159.26 45.2 159.532 45.472C159.996 45.936 160.484 46.296 160.996 46.552C161.508 46.808 162.148 46.936 162.916 46.936C163.156 46.92 163.42 46.888 163.708 46.84C163.996 46.776 164.244 46.648 164.452 46.456C164.676 46.248 164.788 45.936 164.788 45.52C164.788 45.168 164.668 44.888 164.428 44.68C164.188 44.472 163.868 44.296 163.468 44.152C163.084 44.008 162.652 43.872 162.172 43.744C161.676 43.6 161.164 43.44 160.636 43.264C160.124 43.088 159.652 42.864 159.22 42.592C158.788 42.304 158.436 41.928 158.164 41.464C157.892 41 157.756 40.416 157.756 39.712C157.756 38.912 157.98 38.232 158.428 37.672C158.876 37.112 159.452 36.68 160.156 36.376C160.876 36.072 161.628 35.92 162.412 35.92C162.908 35.92 163.428 35.984 163.972 36.112C164.516 36.224 165.036 36.416 165.532 36.688C166.028 36.944 166.444 37.288 166.78 37.72C166.956 37.96 167.06 38.248 167.092 38.584C167.124 38.92 166.972 39.224 166.636 39.496C166.396 39.688 166.116 39.776 165.796 39.76C165.476 39.728 165.212 39.616 165.004 39.424C164.732 39.072 164.364 38.792 163.9 38.584C163.452 38.376 162.932 38.272 162.34 38.272C162.1 38.272 161.836 38.304 161.548 38.368C161.276 38.416 161.036 38.536 160.828 38.728C160.62 38.904 160.516 39.192 160.516 39.592C160.516 39.96 160.636 40.256 160.876 40.48C161.116 40.688 161.436 40.864 161.836 41.008C162.252 41.136 162.692 41.264 163.156 41.392C163.636 41.52 164.124 41.672 164.62 41.848C165.116 42.024 165.572 42.256 165.988 42.544C166.404 42.832 166.74 43.208 166.996 43.672C167.252 44.12 167.38 44.696 167.38 45.4C167.38 46.216 167.14 46.912 166.66 47.488C166.18 48.064 165.58 48.504 164.86 48.808C164.14 49.096 163.404 49.24 162.652 49.24C161.708 49.24 160.764 49.08 159.82 48.76C158.876 48.424 158.092 47.84 157.468 47.008Z" fill="#29313C"/>
<path d="M70.1026 18C69.6546 18 69.2866 17.864 68.9986 17.592C68.7106 17.304 68.5666 16.952 68.5666 16.536V4.44L68.9026 4.968L67.1506 6.264C66.9266 6.44 66.6466 6.528 66.3106 6.528C65.9266 6.528 65.5906 6.384 65.3026 6.096C65.0146 5.808 64.8706 5.464 64.8706 5.064C64.8706 4.552 65.1186 4.136 65.6146 3.816L69.0706 1.512C69.2306 1.4 69.4066 1.32 69.5986 1.272C69.8066 1.224 69.9986 1.2 70.1746 1.2C70.6386 1.2 71.0066 1.344 71.2786 1.632C71.5506 1.904 71.6866 2.248 71.6866 2.664V16.536C71.6866 16.952 71.5346 17.304 71.2306 17.592C70.9426 17.864 70.5666 18 70.1026 18ZM81.0868 18.24C79.7108 18.24 78.5428 17.88 77.5828 17.16C76.6388 16.424 75.9188 15.408 75.4228 14.112C74.9268 12.8 74.6788 11.296 74.6788 9.6C74.6788 7.888 74.9268 6.384 75.4228 5.088C75.9188 3.792 76.6388 2.784 77.5828 2.064C78.5428 1.328 79.7108 0.959999 81.0868 0.959999C82.4628 0.959999 83.6228 1.328 84.5668 2.064C85.5268 2.784 86.2548 3.792 86.7508 5.088C87.2468 6.384 87.4948 7.888 87.4948 9.6C87.4948 11.296 87.2468 12.8 86.7508 14.112C86.2548 15.408 85.5268 16.424 84.5668 17.16C83.6228 17.88 82.4628 18.24 81.0868 18.24ZM81.0868 15.36C81.7588 15.36 82.3348 15.152 82.8148 14.736C83.3108 14.304 83.6948 13.664 83.9668 12.816C84.2388 11.952 84.3748 10.88 84.3748 9.6C84.3748 8.304 84.2388 7.232 83.9668 6.384C83.6948 5.536 83.3108 4.904 82.8148 4.488C82.3348 4.056 81.7588 3.84 81.0868 3.84C80.4308 3.84 79.8548 4.056 79.3588 4.488C78.8628 4.904 78.4788 5.536 78.2068 6.384C77.9348 7.232 77.7988 8.304 77.7988 9.6C77.7988 10.88 77.9348 11.952 78.2068 12.816C78.4788 13.664 78.8628 14.304 79.3588 14.736C79.8548 15.152 80.4308 15.36 81.0868 15.36ZM90.7649 11.376C90.3809 11.376 90.0609 11.248 89.8049 10.992C89.5489 10.736 89.4209 10.416 89.4209 10.032C89.4209 9.648 89.5489 9.336 89.8049 9.096C90.0609 8.856 90.3809 8.736 90.7649 8.736H100.533C100.917 8.736 101.237 8.864 101.493 9.12C101.749 9.36 101.877 9.672 101.877 10.056C101.877 10.44 101.749 10.76 101.493 11.016C101.237 11.256 100.917 11.376 100.533 11.376H90.7649ZM95.6129 16.056C95.1649 16.056 94.7889 15.912 94.4849 15.624C94.1969 15.336 94.0529 14.968 94.0529 14.52V5.16C94.0529 4.712 94.2049 4.344 94.5089 4.056C94.8129 3.768 95.1889 3.624 95.6369 3.624C96.1009 3.624 96.4689 3.768 96.7409 4.056C97.0289 4.344 97.1729 4.712 97.1729 5.16V14.52C97.1729 14.968 97.0289 15.336 96.7409 15.624C96.4529 15.912 96.0769 16.056 95.6129 16.056ZM116.551 18C116.103 18 115.735 17.864 115.447 17.592C115.159 17.304 115.015 16.952 115.015 16.536V2.616H118.135V16.536C118.135 16.952 117.983 17.304 117.679 17.592C117.391 17.864 117.015 18 116.551 18ZM111.247 3.96C110.831 3.96 110.479 3.832 110.191 3.576C109.919 3.32 109.783 2.984 109.783 2.568C109.783 2.152 109.919 1.824 110.191 1.584C110.479 1.328 110.831 1.2 111.247 1.2H121.903C122.319 1.2 122.663 1.328 122.935 1.584C123.223 1.84 123.367 2.176 123.367 2.592C123.367 3.008 123.223 3.344 122.935 3.6C122.663 3.84 122.319 3.96 121.903 3.96H111.247ZM125.656 18C125.24 18 124.896 17.864 124.624 17.592C124.352 17.304 124.216 16.952 124.216 16.536V6.624C124.216 6.208 124.352 5.864 124.624 5.592C124.896 5.304 125.24 5.16 125.656 5.16C126.072 5.16 126.416 5.304 126.688 5.592C126.96 5.864 127.096 6.208 127.096 6.624V8.88L126.928 7.272C127.104 6.888 127.328 6.552 127.6 6.264C127.888 5.96 128.208 5.712 128.56 5.52C128.912 5.312 129.288 5.16 129.688 5.064C130.088 4.968 130.488 4.92 130.888 4.92C131.368 4.92 131.768 5.056 132.088 5.328C132.424 5.6 132.592 5.92 132.592 6.288C132.592 6.816 132.456 7.2 132.184 7.44C131.912 7.664 131.616 7.776 131.296 7.776C130.992 7.776 130.712 7.72 130.456 7.608C130.216 7.496 129.936 7.44 129.616 7.44C129.328 7.44 129.032 7.512 128.728 7.656C128.44 7.784 128.168 7.992 127.912 8.28C127.672 8.568 127.472 8.928 127.312 9.36C127.168 9.776 127.096 10.272 127.096 10.848V16.536C127.096 16.952 126.96 17.304 126.688 17.592C126.416 17.864 126.072 18 125.656 18ZM144.151 5.16C144.567 5.16 144.911 5.304 145.182 5.592C145.455 5.864 145.591 6.208 145.591 6.624V12.72C145.591 14.416 145.119 15.76 144.175 16.752C143.231 17.744 141.871 18.24 140.095 18.24C138.319 18.24 136.959 17.744 136.015 16.752C135.087 15.76 134.623 14.416 134.623 12.72V6.624C134.623 6.208 134.759 5.864 135.031 5.592C135.303 5.304 135.647 5.16 136.062 5.16C136.479 5.16 136.823 5.304 137.095 5.592C137.367 5.864 137.503 6.208 137.503 6.624V12.72C137.503 13.696 137.719 14.424 138.151 14.904C138.583 15.368 139.231 15.6 140.095 15.6C140.975 15.6 141.631 15.368 142.063 14.904C142.495 14.424 142.711 13.696 142.711 12.72V6.624C142.711 6.208 142.847 5.864 143.119 5.592C143.391 5.304 143.735 5.16 144.151 5.16ZM147.964 16.008C147.804 15.784 147.732 15.496 147.748 15.144C147.764 14.792 147.972 14.488 148.372 14.232C148.628 14.072 148.9 14.008 149.188 14.04C149.476 14.056 149.756 14.2 150.028 14.472C150.492 14.936 150.98 15.296 151.492 15.552C152.004 15.808 152.644 15.936 153.412 15.936C153.652 15.92 153.916 15.888 154.204 15.84C154.492 15.776 154.74 15.648 154.948 15.456C155.172 15.248 155.284 14.936 155.284 14.52C155.284 14.168 155.164 13.888 154.924 13.68C154.684 13.472 154.364 13.296 153.964 13.152C153.58 13.008 153.148 12.872 152.668 12.744C152.172 12.6 151.66 12.44 151.132 12.264C150.62 12.088 150.148 11.864 149.716 11.592C149.284 11.304 148.932 10.928 148.66 10.464C148.388 10 148.252 9.416 148.252 8.712C148.252 7.912 148.476 7.232 148.924 6.672C149.372 6.112 149.948 5.68 150.652 5.376C151.372 5.072 152.124 4.92 152.908 4.92C153.404 4.92 153.924 4.984 154.468 5.112C155.012 5.224 155.532 5.416 156.028 5.688C156.524 5.944 156.94 6.288 157.276 6.72C157.452 6.96 157.556 7.248 157.588 7.584C157.62 7.92 157.468 8.224 157.132 8.496C156.892 8.688 156.612 8.776 156.292 8.76C155.972 8.728 155.708 8.616 155.5 8.424C155.228 8.072 154.86 7.792 154.396 7.584C153.948 7.376 153.428 7.272 152.836 7.272C152.596 7.272 152.332 7.304 152.044 7.368C151.772 7.416 151.532 7.536 151.324 7.728C151.116 7.904 151.012 8.192 151.012 8.592C151.012 8.96 151.132 9.256 151.372 9.48C151.612 9.688 151.932 9.864 152.332 10.008C152.748 10.136 153.188 10.264 153.652 10.392C154.132 10.52 154.62 10.672 155.116 10.848C155.612 11.024 156.068 11.256 156.484 11.544C156.9 11.832 157.236 12.208 157.492 12.672C157.748 13.12 157.876 13.696 157.876 14.4C157.876 15.216 157.636 15.912 157.156 16.488C156.676 17.064 156.076 17.504 155.356 17.808C154.636 18.096 153.9 18.24 153.148 18.24C152.204 18.24 151.26 18.08 150.316 17.76C149.372 17.424 148.588 16.84 147.964 16.008ZM160.431 5.4H166.119C166.503 5.4 166.823 5.528 167.079 5.784C167.335 6.04 167.463 6.36 167.463 6.744C167.463 7.112 167.335 7.424 167.079 7.68C166.823 7.92 166.503 8.04 166.119 8.04H160.431C160.047 8.04 159.727 7.912 159.471 7.656C159.215 7.4 159.087 7.08 159.087 6.696C159.087 6.328 159.215 6.024 159.471 5.784C159.727 5.528 160.047 5.4 160.431 5.4ZM162.999 2.4C163.415 2.4 163.751 2.544 164.007 2.832C164.279 3.104 164.415 3.448 164.415 3.864V14.544C164.415 14.768 164.455 14.952 164.535 15.096C164.631 15.24 164.751 15.344 164.895 15.408C165.055 15.472 165.223 15.504 165.399 15.504C165.591 15.504 165.767 15.472 165.927 15.408C166.087 15.328 166.271 15.288 166.479 15.288C166.703 15.288 166.903 15.392 167.079 15.6C167.271 15.808 167.367 16.096 167.367 16.464C167.367 16.912 167.119 17.28 166.623 17.568C166.143 17.856 165.623 18 165.063 18C164.727 18 164.351 17.976 163.935 17.928C163.535 17.864 163.151 17.728 162.783 17.52C162.431 17.296 162.135 16.96 161.895 16.512C161.655 16.064 161.535 15.448 161.535 14.664V3.864C161.535 3.448 161.671 3.104 161.943 2.832C162.231 2.544 162.583 2.4 162.999 2.4ZM176.038 18.24C174.678 18.24 173.494 17.96 172.486 17.4C171.494 16.824 170.726 16.048 170.182 15.072C169.654 14.096 169.39 12.992 169.39 11.76C169.39 10.32 169.678 9.096 170.254 8.088C170.846 7.064 171.614 6.28 172.558 5.736C173.502 5.192 174.502 4.92 175.558 4.92C176.374 4.92 177.142 5.088 177.862 5.424C178.598 5.76 179.246 6.224 179.806 6.816C180.366 7.392 180.806 8.064 181.126 8.832C181.462 9.6 181.63 10.416 181.63 11.28C181.614 11.664 181.462 11.976 181.174 12.216C180.886 12.456 180.55 12.576 180.166 12.576H170.998L170.278 10.176H179.086L178.558 10.656V10.008C178.526 9.544 178.358 9.128 178.054 8.76C177.766 8.392 177.398 8.104 176.95 7.896C176.518 7.672 176.054 7.56 175.558 7.56C175.078 7.56 174.63 7.624 174.214 7.752C173.798 7.88 173.438 8.096 173.134 8.4C172.83 8.704 172.59 9.112 172.414 9.624C172.238 10.136 172.15 10.784 172.15 11.568C172.15 12.432 172.326 13.168 172.678 13.776C173.046 14.368 173.51 14.824 174.07 15.144C174.646 15.448 175.254 15.6 175.894 15.6C176.486 15.6 176.958 15.552 177.31 15.456C177.662 15.36 177.942 15.248 178.15 15.12C178.374 14.976 178.574 14.856 178.75 14.76C179.038 14.616 179.31 14.544 179.566 14.544C179.918 14.544 180.206 14.664 180.43 14.904C180.67 15.144 180.79 15.424 180.79 15.744C180.79 16.176 180.566 16.568 180.118 16.92C179.702 17.272 179.118 17.584 178.366 17.856C177.614 18.112 176.838 18.24 176.038 18.24ZM194.658 0.24C195.074 0.24 195.418 0.375999 195.69 0.647999C195.962 0.919999 196.098 1.272 196.098 1.704V16.536C196.098 16.952 195.962 17.304 195.69 17.592C195.418 17.864 195.074 18 194.658 18C194.242 18 193.898 17.864 193.626 17.592C193.354 17.304 193.218 16.952 193.218 16.536V15.36L193.746 15.576C193.746 15.784 193.634 16.04 193.41 16.344C193.186 16.632 192.882 16.92 192.498 17.208C192.114 17.496 191.658 17.744 191.13 17.952C190.618 18.144 190.058 18.24 189.45 18.24C188.346 18.24 187.346 17.96 186.45 17.4C185.554 16.824 184.842 16.04 184.314 15.048C183.802 14.04 183.546 12.888 183.546 11.592C183.546 10.28 183.802 9.128 184.314 8.136C184.842 7.128 185.546 6.344 186.426 5.784C187.306 5.208 188.282 4.92 189.354 4.92C190.042 4.92 190.674 5.024 191.25 5.232C191.826 5.44 192.322 5.704 192.738 6.024C193.17 6.344 193.498 6.672 193.722 7.008C193.962 7.328 194.082 7.6 194.082 7.824L193.218 8.136V1.704C193.218 1.288 193.354 0.943999 193.626 0.671999C193.898 0.383999 194.242 0.24 194.658 0.24ZM189.81 15.6C190.514 15.6 191.13 15.424 191.658 15.072C192.186 14.72 192.594 14.24 192.882 13.632C193.186 13.024 193.338 12.344 193.338 11.592C193.338 10.824 193.186 10.136 192.882 9.528C192.594 8.92 192.186 8.44 191.658 8.088C191.13 7.736 190.514 7.56 189.81 7.56C189.122 7.56 188.514 7.736 187.986 8.088C187.458 8.44 187.042 8.92 186.738 9.528C186.45 10.136 186.306 10.824 186.306 11.592C186.306 12.344 186.45 13.024 186.738 13.632C187.042 14.24 187.458 14.72 187.986 15.072C188.514 15.424 189.122 15.6 189.81 15.6Z" fill="#FF5E95"/>
</svg>
