<svg width="15" height="15" viewBox="0 0 15 15" fill="none" xmlns="http://www.w3.org/2000/svg">
<path d="M12.139 1.51953H2.83453C2.46899 1.51953 2.16992 1.7889 2.16992 2.12183V13.7864C2.16992 14.1193 2.38592 14.2041 2.65508 13.971L7.2176 10.0304C7.32393 9.93956 7.50005 9.93956 7.60639 10.0273L12.3151 13.9801C12.5843 14.2071 12.8036 14.1193 12.8036 13.7864V2.12183C12.8036 1.7889 12.5079 1.51953 12.139 1.51953ZM11.8067 12.3215L8.28096 9.36148C8.03506 9.15567 7.72602 9.05276 7.41366 9.05276C7.09465 9.05276 6.77896 9.1587 6.53305 9.37056L3.16683 12.2791V2.42751H11.8067V12.3215Z" fill="#EF7B9C"/>
</svg>
