<svg width="54" height="54" viewBox="0 0 54 54" fill="none" xmlns="http://www.w3.org/2000/svg">
<path fill-rule="evenodd" clip-rule="evenodd" d="M15.957 10.7168C16.8486 9.09639 17.8185 8.01318 19.2577 7.44035C21.895 6.39168 31.3405 6.39168 33.9758 7.44056C35.4142 8.01308 36.3845 9.0961 37.2768 10.7162L38.2798 12.6396C38.3028 12.6777 38.3239 12.7112 38.3428 12.74L38.428 12.8565C38.885 13.3545 39.6498 13.6553 40.1546 13.6553C44.928 13.6553 48.7986 17.525 48.7986 22.297V35.1509C48.7986 41.2378 43.8615 46.1748 37.7746 46.1748H15.4605C9.37209 46.1748 4.43659 41.2385 4.43659 35.1509V22.297C4.43659 17.525 8.30712 13.6553 13.0805 13.6553C13.5835 13.6553 14.3494 13.354 14.8072 12.8565C14.8163 12.8465 14.8283 12.8317 14.8427 12.8121L14.9568 12.6371L15.957 10.7168ZM34.3625 12.3213C33.808 11.3146 33.307 10.7553 32.7455 10.5318L32.4808 10.4439C30.198 9.79865 22.2578 9.82798 20.4876 10.5318C19.9264 10.7552 19.4258 11.3142 18.8721 12.3207L18.0184 13.9712L17.8083 14.3514C17.6329 14.6432 17.4575 14.8894 17.2571 15.1077C16.1338 16.3288 14.4719 16.9824 13.0806 16.9824L12.7166 16.9947C9.95028 17.1818 7.76379 19.4849 7.76379 22.297V35.1509C7.76379 39.4011 11.2098 42.8477 15.4606 42.8477H37.7747C42.0241 42.8477 45.4715 39.4003 45.4715 35.1509V22.297C45.4715 19.3627 43.0907 16.9824 40.1547 16.9824L39.7685 16.9663C38.463 16.8589 36.9967 16.2176 35.9768 15.1062C35.7791 14.8908 35.6046 14.6463 35.4302 14.357C35.4052 14.3155 35.3741 14.2609 35.3384 14.1963L35.0809 13.7133L34.3625 12.3213Z" fill="#F696B1"/>
<path d="M38.8266 18.8539C40.0516 18.8539 41.0447 19.847 41.0447 21.072C41.0447 22.2095 40.1884 23.147 39.0853 23.2752L38.8266 23.2901C37.5816 23.2901 36.5886 22.297 36.5886 21.072C36.5886 19.9345 37.4448 18.9969 38.548 18.8688L38.8266 18.8539Z" fill="#F696B1"/>
<path fill-rule="evenodd" clip-rule="evenodd" d="M17.902 29.1193C17.902 24.3055 21.8032 20.4044 26.6169 20.4044C31.4307 20.4044 35.3318 24.3055 35.3318 29.1193C35.3318 33.933 31.4307 37.8342 26.6169 37.8342C21.8032 37.8342 17.902 33.933 17.902 29.1193ZM32.0047 29.1193C32.0047 26.143 29.5932 23.7315 26.617 23.7315C23.6408 23.7315 21.2292 26.143 21.2292 29.1193C21.2292 32.0955 23.6408 34.507 26.617 34.507C29.5932 34.507 32.0047 32.0955 32.0047 29.1193Z" fill="#F696B1"/>
</svg>
