<svg width="26" height="26" viewBox="0 0 26 26" fill="none" xmlns="http://www.w3.org/2000/svg">
<mask id="mask0" style="mask-type:alpha" maskUnits="userSpaceOnUse" x="2" y="15" width="17" height="8">
<path fill-rule="evenodd" clip-rule="evenodd" d="M2.16699 15.1201H18.6161V22.8114H2.16699V15.1201Z" fill="white"/>
</mask>
<g mask="url(#mask0)">
<path fill-rule="evenodd" clip-rule="evenodd" d="M10.3917 16.7451C7.38108 16.7451 3.79199 17.1319 3.79199 18.979C3.79199 20.4436 6.01283 21.1868 10.3917 21.1868C14.7705 21.1868 16.9913 20.436 16.9913 18.9573C16.9913 17.4894 14.7705 16.7451 10.3917 16.7451ZM10.3917 22.8118C8.14266 22.8118 2.16699 22.8118 2.16699 18.979C2.16699 15.1201 8.35716 15.1201 10.3917 15.1201C13.9222 15.1201 18.6163 15.5177 18.6163 18.9573C18.6163 22.8118 12.4262 22.8118 10.3917 22.8118Z" fill="#999999"/>
</g>
<path fill-rule="evenodd" clip-rule="evenodd" d="M10.3911 3.79199C8.21906 3.79199 6.45215 5.55891 6.45215 7.72991C6.45215 9.90091 8.21906 11.6678 10.3911 11.6678H10.4247C11.4691 11.6635 12.4527 11.2529 13.1905 10.5087C13.9293 9.76657 14.3334 8.77966 14.3291 7.73316C14.3291 5.55891 12.5621 3.79199 10.3911 3.79199ZM10.3911 13.2928C7.32315 13.2928 4.82715 10.7968 4.82715 7.72991C4.82715 4.66299 7.32315 2.16699 10.3911 2.16699C13.4581 2.16699 15.9541 4.66299 15.9541 7.72991C15.9606 9.20758 15.3875 10.6029 14.3431 11.6537C13.301 12.7057 11.9089 13.2874 10.428 13.2928H10.3911Z" fill="#999999"/>
<path fill-rule="evenodd" clip-rule="evenodd" d="M17.8566 12.0597C17.4579 12.0597 17.1102 11.7661 17.0528 11.3598C16.991 10.9157 17.2998 10.504 17.7439 10.4422C19.0959 10.2527 20.1164 9.07941 20.1186 7.71224C20.1186 6.35374 19.1458 5.20757 17.8079 4.98874C17.3648 4.91507 17.0647 4.49799 17.1373 4.05491C17.2099 3.61182 17.6291 3.31391 18.07 3.38432C20.1988 3.73316 21.7436 5.55424 21.7436 7.71332C21.7393 9.88541 20.1175 11.7509 17.9704 12.0521C17.9324 12.0575 17.8945 12.0597 17.8566 12.0597Z" fill="#999999"/>
<mask id="mask1" style="mask-type:alpha" maskUnits="userSpaceOnUse" x="19" y="14" width="5" height="6">
<path fill-rule="evenodd" clip-rule="evenodd" d="M19.333 14.6074H23.8113V19.9997H19.333V14.6074Z" fill="white"/>
</mask>
<g mask="url(#mask1)">
<path fill-rule="evenodd" clip-rule="evenodd" d="M21.5541 19.9997C21.2259 19.9997 20.9171 19.7993 20.7947 19.4754C20.6355 19.0562 20.8467 18.586 21.266 18.4278C22.1868 18.079 22.1868 17.6532 22.1868 17.4712C22.1868 16.857 21.4599 16.4367 20.0266 16.2232C19.5825 16.1561 19.2759 15.7422 19.342 15.2992C19.4091 14.855 19.8306 14.5571 20.2661 14.6145C23.1976 15.0532 23.8118 16.4107 23.8118 17.4712C23.8118 18.261 23.4706 19.3302 21.8423 19.9467C21.7481 19.9824 21.6506 19.9997 21.5541 19.9997Z" fill="#999999"/>
</g>
</svg>
