<svg width="26" height="26" viewBox="0 0 26 26" fill="none" xmlns="http://www.w3.org/2000/svg">
<path fill-rule="evenodd" clip-rule="evenodd" d="M12.1457 12.1461L11.0114 15.7721L14.6362 14.6367L15.7716 11.0108L12.1457 12.1461ZM9.77208 17.8228C9.55975 17.8228 9.35175 17.7394 9.19683 17.5856C8.98342 17.3711 8.90542 17.0558 8.99642 16.7687L10.7222 11.2556C10.8013 11 11.0006 10.8017 11.2541 10.7226L16.7672 8.99689C17.0564 8.9048 17.3706 8.98389 17.5851 9.1973C17.7985 9.4118 17.8765 9.72705 17.7855 10.0141L16.0608 15.5272C15.9818 15.7818 15.7813 15.9811 15.5278 16.0602L10.0148 17.786C9.93458 17.8109 9.85225 17.8228 9.77208 17.8228Z" fill="#999999"/>
<mask id="mask0" style="mask-type:alpha" maskUnits="userSpaceOnUse" x="2" y="2" width="23" height="23">
<path fill-rule="evenodd" clip-rule="evenodd" d="M2.16699 2.16699H24.6156V24.6155H2.16699V2.16699Z" fill="white"/>
</mask>
<g mask="url(#mask0)">
<path fill-rule="evenodd" clip-rule="evenodd" d="M13.3914 3.79199C8.09824 3.79199 3.79199 8.09933 3.79199 13.3914C3.79199 18.6846 8.09824 22.9908 13.3914 22.9908C18.6846 22.9908 22.9908 18.6846 22.9908 13.3914C22.9908 8.09933 18.6846 3.79199 13.3914 3.79199ZM13.3914 24.6158C7.20233 24.6158 2.16699 19.5805 2.16699 13.3914C2.16699 7.20233 7.20233 2.16699 13.3914 2.16699C19.5805 2.16699 24.6158 7.20233 24.6158 13.3914C24.6158 19.5805 19.5805 24.6158 13.3914 24.6158Z" fill="#999999"/>
</g>
</svg>
