<svg width="15" height="15" viewBox="0 0 15 15" fill="none" xmlns="http://www.w3.org/2000/svg">
<path d="M12.5 6.875C12.5 5.54892 11.9732 4.27715 11.0355 3.33947C10.0979 2.40178 8.82608 1.875 7.5 1.875C6.17392 1.875 4.90215 2.40178 3.96447 3.33947C3.02678 4.27715 2.5 5.54892 2.5 6.875" stroke="#EF7B9C" stroke-linecap="round" stroke-linejoin="round"/>
<path d="M1.25 9.64908V8.47658C1.25004 8.19784 1.34325 7.92711 1.51482 7.70742C1.68638 7.48772 1.92645 7.33168 2.19688 7.26408L3.28438 6.99158C3.33964 6.97782 3.3973 6.97683 3.45301 6.98867C3.50871 7.00052 3.56098 7.02489 3.60586 7.05995C3.65074 7.09501 3.68704 7.13983 3.71201 7.19101C3.73699 7.24219 3.74998 7.29839 3.75 7.35533V10.7697C3.7501 10.8268 3.73717 10.8831 3.7122 10.9344C3.68723 10.9857 3.65088 11.0307 3.60591 11.0658C3.56095 11.101 3.50855 11.1254 3.45272 11.1372C3.3969 11.149 3.3391 11.148 3.28375 11.1341L2.19625 10.8622C1.92594 10.7945 1.68601 10.6384 1.51457 10.4187C1.34313 10.199 1.25001 9.92837 1.25 9.64971V9.64908Z" stroke="#EF7B9C"/>
<path d="M13.75 9.64908V8.47658C13.75 8.19784 13.6568 7.92711 13.4852 7.70742C13.3136 7.48772 13.0736 7.33168 12.8031 7.26408L11.7156 6.99158C11.6604 6.97782 11.6027 6.97683 11.547 6.98867C11.4913 7.00052 11.439 7.02489 11.3941 7.05995C11.3493 7.09501 11.313 7.13983 11.288 7.19101C11.263 7.24219 11.25 7.29839 11.25 7.35533V10.7697C11.2499 10.8267 11.2628 10.883 11.2878 10.9342C11.3127 10.9855 11.349 11.0304 11.3939 11.0655C11.4388 11.1007 11.4911 11.1251 11.5468 11.137C11.6026 11.1488 11.6603 11.1479 11.7156 11.1341L12.8031 10.8622C13.0736 10.7946 13.3136 10.6386 13.4852 10.4189C13.6568 10.1992 13.75 9.92845 13.75 9.64971V9.64908Z" stroke="#EF7B9C"/>
<path d="M12.5 11.25V11.5625C12.5 11.894 12.3683 12.212 12.1339 12.4464C11.8995 12.6808 11.5815 12.8125 11.25 12.8125H9.0625" stroke="#EF7B9C"/>
<path d="M8.4375 13.75H6.5625C6.31386 13.75 6.0754 13.6512 5.89959 13.4754C5.72377 13.2996 5.625 13.0611 5.625 12.8125C5.625 12.5639 5.72377 12.3254 5.89959 12.1496C6.0754 11.9738 6.31386 11.875 6.5625 11.875H8.4375C8.68614 11.875 8.9246 11.9738 9.10041 12.1496C9.27623 12.3254 9.375 12.5639 9.375 12.8125C9.375 13.0611 9.27623 13.2996 9.10041 13.4754C8.9246 13.6512 8.68614 13.75 8.4375 13.75Z" stroke="#EF7B9C"/>
</svg>
