<svg width="26" height="26" viewBox="0 0 26 26" fill="none" xmlns="http://www.w3.org/2000/svg">
<mask id="mask0" style="mask-type:alpha" maskUnits="userSpaceOnUse" x="2" y="1" width="23" height="24">
<path fill-rule="evenodd" clip-rule="evenodd" d="M2.16699 1.08398H24.3751V24.3811H2.16699V1.08398Z" fill="white"/>
</mask>
<g mask="url(#mask0)">
<path fill-rule="evenodd" clip-rule="evenodd" d="M14.8604 16.5662C16.1647 16.5662 17.2264 17.6203 17.2264 18.9159V22.2483C17.2264 22.5267 17.4496 22.7498 17.7356 22.7563H19.8004C21.4276 22.7563 22.7503 21.4498 22.7503 19.8443V10.3933C22.7427 9.84084 22.4795 9.32084 22.0277 8.97526L14.8853 3.27909C13.9266 2.51967 12.5854 2.51967 11.6234 3.28126L4.52974 8.97309C4.06066 9.32951 3.79741 9.84951 3.79199 10.4118V19.8443C3.79199 21.4498 5.11474 22.7563 6.74191 22.7563H8.82624C9.11983 22.7563 9.35816 22.5234 9.35816 22.2374C9.35816 22.1746 9.36574 22.1118 9.37874 22.0522V18.9159C9.37874 17.6278 10.4339 16.5748 11.7285 16.5662H14.8604ZM19.8004 24.3813H17.7161C16.5222 24.3532 15.6014 23.4161 15.6014 22.2483V18.9159C15.6014 18.5162 15.2688 18.1912 14.8604 18.1912H11.7339C11.3342 18.1933 11.0037 18.5194 11.0037 18.9159V22.2374C11.0037 22.3187 10.9929 22.3967 10.9702 22.4703C10.8532 23.5428 9.93666 24.3813 8.82624 24.3813H6.74191C4.21883 24.3813 2.16699 22.3458 2.16699 19.8443V10.4042C2.17783 9.32734 2.67399 8.34151 3.53091 7.69259L10.6105 2.01051C12.1694 0.775505 14.3415 0.775505 15.8972 2.00834L23.0277 7.69584C23.8651 8.33392 24.3612 9.31759 24.3753 10.3814V19.8443C24.3753 22.3458 22.3235 24.3813 19.8004 24.3813Z" fill="#999999"/>
</g>
</svg>
