<svg width="16" height="16" viewBox="0 0 16 16" fill="none" xmlns="http://www.w3.org/2000/svg">
<g id="Iconly/Bold/Image">
<g id="Image">
<path id="Image_2" fill-rule="evenodd" clip-rule="evenodd" d="M5.11095 14.6668H10.8887C13.1489 14.6668 14.6668 13.0814 14.6668 10.7223V5.27798C14.6668 2.9189 13.1489 1.3335 10.8894 1.3335H5.11095C2.85143 1.3335 1.3335 2.9189 1.3335 5.27798V10.7223C1.3335 13.0814 2.85143 14.6668 5.11095 14.6668ZM5.66607 7.3335C4.74697 7.3335 4.00016 6.58568 4.00016 5.66683C4.00016 4.74798 4.74697 4.00016 5.66607 4.00016C6.58449 4.00016 7.33197 4.74798 7.33197 5.66683C7.33197 6.58568 6.58449 7.3335 5.66607 7.3335ZM13.214 9.95613C13.4373 10.5285 13.3213 11.2165 13.0826 11.7834C12.7997 12.4577 12.2581 12.9682 11.5756 13.1911C11.2726 13.2902 10.9548 13.3335 10.6378 13.3335H5.01926C4.46016 13.3335 3.96541 13.1993 3.55983 12.9496C3.30576 12.7927 3.26084 12.4308 3.44922 12.1962C3.7643 11.8041 4.07536 11.4106 4.3891 11.0136C4.98708 10.254 5.38998 10.0339 5.8378 10.2272C6.01947 10.307 6.20182 10.4267 6.38952 10.5533C6.88963 10.8932 7.58482 11.3603 8.50057 10.8533C9.12723 10.5023 9.4907 9.90025 9.80721 9.37598L9.81251 9.36721C9.83494 9.33043 9.85716 9.29365 9.87933 9.25697L9.87934 9.25695C9.98571 9.08095 10.0907 8.90731 10.2094 8.74732C10.3582 8.54712 10.9099 7.92104 11.6246 8.36686C12.0797 8.64757 12.4625 9.02734 12.8721 9.43394C13.0283 9.58943 13.1396 9.76624 13.214 9.95613Z" fill="#F696B1"/>
</g>
</g>
</svg>
