<svg width="15" height="14" viewBox="0 0 15 14" fill="none" xmlns="http://www.w3.org/2000/svg">
<path d="M12.3181 3.51038L12.647 3.18144L12.9381 3.47252C12.9937 3.52766 13.0833 3.52766 13.1389 3.47252L13.3398 3.27161C13.395 3.21601 13.395 3.12641 13.3398 3.07082L12.3356 2.06662C12.28 2.01148 12.1903 2.01148 12.1347 2.06662L11.9339 2.26741C11.8788 2.32301 11.8788 2.41272 11.9339 2.46832L12.225 2.75939L11.8815 3.10288C10.9891 2.35384 9.89152 1.8913 8.7321 1.77554V1.16429H9.31424C9.39144 1.16429 9.46546 1.13359 9.52004 1.07901C9.57461 1.02444 9.60531 0.950416 9.60531 0.873215V0.291072C9.60531 0.213871 9.57461 0.139851 9.52004 0.0852753C9.46546 0.0306993 9.39144 0 9.31424 0H6.98567C6.8249 0 6.69459 0.130301 6.69459 0.291072V0.873215C6.69459 0.950416 6.72529 1.02444 6.77987 1.07901C6.83444 1.13359 6.90846 1.16429 6.98567 1.16429H7.56781V1.77851C6.70766 1.86526 5.87767 2.14246 5.13803 2.5901C4.39842 3.03763 3.76784 3.64434 3.29199 4.36611C3.2489 4.43046 3.23332 4.50937 3.24856 4.58532C3.26391 4.66127 3.30882 4.72801 3.3734 4.77065C3.43935 4.81488 3.52042 4.83012 3.59785 4.81317C3.67539 4.79612 3.74259 4.74814 3.78386 4.68048C4.38384 3.77249 5.25185 3.07391 6.26705 2.68175C7.28228 2.28959 8.39449 2.22331 9.44905 2.4921C10.5036 2.761 11.4484 3.35155 12.152 4.18192C12.8556 5.01214 13.2832 6.04102 13.3753 7.12553C13.4675 8.20989 13.2197 9.29617 12.6663 10.2333C12.1128 11.1704 11.2813 11.912 10.2872 12.355C9.29306 12.7978 8.18574 12.9202 7.11864 12.705C6.0518 12.4898 5.07852 11.9477 4.33378 11.1539C4.28273 11.0914 4.2078 11.0529 4.12719 11.0477C4.04646 11.0425 3.96732 11.071 3.90854 11.1265C3.84976 11.1821 3.81679 11.2596 3.81735 11.3404C3.81804 11.4211 3.85215 11.4981 3.91173 11.5527C4.60893 12.3261 5.50069 12.8982 6.4942 13.2098C7.48772 13.5212 8.54649 13.5605 9.56035 13.3236C10.5742 13.0866 11.506 12.5821 12.2584 11.8626C13.011 11.1431 13.5569 10.235 13.8391 9.23276C14.1213 8.2306 14.1296 7.17115 13.8631 6.16457C13.5966 5.1581 13.065 4.24146 12.3237 3.51034L12.3181 3.51038Z" fill="#FD7B9B"/>
<path d="M8.14998 11.4974C7.48619 11.4977 6.83322 11.3295 6.25222 11.0084C6.18423 10.9699 6.10372 10.9597 6.02846 10.9805C5.95307 11.0012 5.88906 11.0512 5.85051 11.119C5.77013 11.2605 5.8197 11.4403 5.96114 11.5207C7.18184 12.1924 8.64424 12.2623 9.92351 11.7104C11.2027 11.1584 12.1552 10.0463 12.504 8.69751C12.8527 7.34868 12.5588 5.91437 11.7076 4.81141C10.8563 3.70851 9.54331 3.06076 8.15009 3.05645C7.98932 3.05645 7.85902 3.18675 7.85902 3.34752C7.85902 3.50829 7.98932 3.63859 8.15009 3.63859C9.55393 3.63859 10.8512 4.38752 11.553 5.60333C12.2549 6.81913 12.2549 8.31699 11.553 9.5328C10.851 10.7486 9.55382 11.4975 8.15009 11.4975L8.14998 11.4974Z" fill="#FD7B9B"/>
<path d="M5.1782 10.5398C5.23289 10.5948 5.30725 10.6258 5.38491 10.6258C5.46257 10.6258 5.53693 10.5948 5.59162 10.5398L7.56794 8.56626C7.90028 8.76239 8.30767 8.78331 8.65844 8.62242C9.00921 8.46154 9.25912 8.13919 9.32723 7.75934C9.39545 7.37946 9.27345 6.99027 9.00056 6.71739C8.72767 6.44451 8.33849 6.32252 7.95861 6.39072C7.57874 6.45882 7.2564 6.70874 7.09553 7.05951C6.93464 7.41028 6.95556 7.81767 7.1517 8.15001L5.1782 10.1205C5.12135 10.1755 5.08917 10.2511 5.08917 10.3301C5.08917 10.4092 5.12135 10.4848 5.1782 10.5398H5.1782ZM8.15005 6.98576C8.30445 6.98576 8.4525 7.04705 8.56165 7.15631C8.67092 7.26547 8.7322 7.4135 8.7322 7.56792C8.7322 7.72234 8.67092 7.87037 8.56165 7.97952C8.4525 8.08879 8.30446 8.15007 8.15005 8.15007C7.99563 8.15007 7.84759 8.08879 7.73844 7.97952C7.62918 7.87037 7.56789 7.72234 7.56789 7.56792C7.56789 7.4135 7.62918 7.26547 7.73844 7.15631C7.84759 7.04705 7.99563 6.98576 8.15005 6.98576Z" fill="#FD7B9B"/>
<path d="M1.45532 6.11256H3.20175C3.36252 6.11256 3.49282 5.98226 3.49282 5.82149C3.49282 5.66072 3.36252 5.53042 3.20175 5.53042H1.45532C1.29455 5.53042 1.16425 5.66072 1.16425 5.82149C1.16425 5.98226 1.29455 6.11256 1.45532 6.11256Z" fill="#FD7B9B"/>
<path d="M4.65715 7.27688C4.65715 7.19968 4.62645 7.12566 4.57188 7.07108C4.5173 7.0165 4.44328 6.98581 4.36608 6.98581H0.291072C0.130301 6.98581 0 7.11611 0 7.27688C0 7.43765 0.130301 7.56795 0.291072 7.56795H4.36608C4.44328 7.56795 4.5173 7.53725 4.57188 7.48267C4.62645 7.4281 4.65715 7.35408 4.65715 7.27688Z" fill="#FD7B9B"/>
<path d="M5.53032 8.4411H1.45532C1.29455 8.4411 1.16425 8.5714 1.16425 8.73217C1.16425 8.89294 1.29455 9.02324 1.45532 9.02324H5.53032C5.69109 9.02324 5.8214 8.89294 5.8214 8.73217C5.8214 8.5714 5.69109 8.4411 5.53032 8.4411Z" fill="#FD7B9B"/>
<path d="M4.07502 10.1876C4.07502 10.1104 4.04432 10.0363 3.98974 9.98176C3.93516 9.92718 3.86114 9.89648 3.78394 9.89648H0.873225C0.712455 9.89648 0.582153 10.0268 0.582153 10.1876C0.582153 10.3483 0.712455 10.4786 0.873225 10.4786H3.78394C3.86114 10.4786 3.93516 10.4479 3.98974 10.3934C4.04432 10.3388 4.07502 10.2648 4.07502 10.1876Z" fill="#FD7B9B"/>
</svg>
