<svg width="26" height="26" viewBox="0 0 26 26" fill="none" xmlns="http://www.w3.org/2000/svg">
<path fill-rule="evenodd" clip-rule="evenodd" d="M12.9951 18.8793C12.5466 18.8793 12.1826 18.5153 12.1826 18.0668V15.3184C12.1826 14.8699 12.5466 14.5059 12.9951 14.5059C13.4436 14.5059 13.8076 14.8699 13.8076 15.3184V18.0668C13.8076 18.5153 13.4436 18.8793 12.9951 18.8793Z" fill="#130F26"/>
<mask id="mask0" style="mask-type:alpha" maskUnits="userSpaceOnUse" x="2" y="4" width="22" height="13">
<path fill-rule="evenodd" clip-rule="evenodd" d="M2.16699 4.96191H23.8226V16.1322H2.16699V4.96191Z" fill="white"/>
</mask>
<g mask="url(#mask0)">
<path fill-rule="evenodd" clip-rule="evenodd" d="M3.79199 12.3427C6.36599 13.7412 9.61166 14.5072 12.9895 14.5072C16.3738 14.5072 19.6227 13.7412 22.1978 12.3427V9.0905C22.1978 7.70925 21.0809 6.58691 19.7062 6.58691H6.29449C4.91433 6.58691 3.79199 7.70491 3.79199 9.07966V12.3427ZM12.9895 16.1322C9.14908 16.1322 5.44733 15.2027 2.56891 13.517C2.31974 13.3718 2.16699 13.1053 2.16699 12.8161V9.07966C2.16699 6.809 4.01841 4.96191 6.29449 4.96191H19.7062C21.9768 4.96191 23.8228 6.81333 23.8228 9.0905V12.8161C23.8228 13.1053 23.669 13.3718 23.4209 13.517C20.5425 15.2027 16.8375 16.1322 12.9895 16.1322Z" fill="#999999"/>
</g>
<mask id="mask1" style="mask-type:alpha" maskUnits="userSpaceOnUse" x="8" y="2" width="10" height="5">
<path fill-rule="evenodd" clip-rule="evenodd" d="M8.39062 2.16699H17.599V6.58255H8.39062V2.16699Z" fill="white"/>
</mask>
<g mask="url(#mask1)">
<path fill-rule="evenodd" clip-rule="evenodd" d="M16.7865 6.58266C16.338 6.58266 15.974 6.21866 15.974 5.77016V5.37366C15.974 4.50158 15.2644 3.79199 14.3923 3.79199H11.5973C10.7252 3.79199 10.0156 4.50158 10.0156 5.37366V5.77016C10.0156 6.21866 9.65162 6.58266 9.20312 6.58266C8.75462 6.58266 8.39062 6.21866 8.39062 5.77016V5.37366C8.39062 3.60566 9.82929 2.16699 11.5973 2.16699H14.3923C16.1603 2.16699 17.599 3.60566 17.599 5.37366V5.77016C17.599 6.21866 17.235 6.58266 16.7865 6.58266Z" fill="#999999"/>
</g>
<path fill-rule="evenodd" clip-rule="evenodd" d="M19.2778 23.5523H6.71111C4.4632 23.5523 2.57061 21.7962 2.40053 19.5537L2.1947 16.8356C2.16111 16.3882 2.49695 15.9971 2.94436 15.9636C3.39395 15.9473 3.78178 16.2647 3.81645 16.7132L4.0212 19.4302C4.12736 20.8299 5.3082 21.9273 6.71111 21.9273H19.2778C20.6807 21.9273 21.8626 20.8299 21.9677 19.4302L22.1735 16.7132C22.2082 16.2647 22.6058 15.9462 23.0456 15.9636C23.493 15.9971 23.8278 16.3882 23.7942 16.8356L23.5884 19.5537C23.4183 21.7962 21.5257 23.5523 19.2778 23.5523Z" fill="#999999"/>
</svg>
