<svg width="17" height="17" viewBox="0 0 17 17" fill="none" xmlns="http://www.w3.org/2000/svg">
<g id="Iconly/Light/Setting">
<g id="Setting">
<path id="Path_33946" fill-rule="evenodd" clip-rule="evenodd" d="M14.738 5.3997L14.2971 4.63464C13.9241 3.98728 13.0975 3.76395 12.4493 4.1354V4.1354C12.1407 4.31718 11.7725 4.36875 11.4259 4.27875C11.0792 4.18874 10.7826 3.96455 10.6015 3.65562C10.4849 3.45925 10.4223 3.23559 10.4199 3.00726V3.00726C10.4304 2.64118 10.2923 2.28643 10.037 2.02383C9.78178 1.76122 9.43108 1.61313 9.06485 1.61328H8.1766C7.8178 1.61328 7.4738 1.75625 7.2207 2.01056C6.9676 2.26488 6.82628 2.60956 6.82801 2.96835V2.96835C6.81737 3.70913 6.21379 4.30405 5.47293 4.30398C5.2446 4.3016 5.02094 4.23898 4.82457 4.12243V4.12243C4.17633 3.75099 3.34974 3.97431 2.97675 4.62167L2.50344 5.3997C2.13091 6.04626 2.35119 6.87232 2.9962 7.24753V7.24753C3.41546 7.48959 3.67374 7.93694 3.67374 8.42106C3.67374 8.90519 3.41546 9.35253 2.9962 9.59459V9.59459C2.35201 9.96727 2.13149 10.7913 2.50344 11.4359V11.4359L2.95081 12.2075C3.12557 12.5228 3.41879 12.7555 3.76559 12.8541C4.11238 12.9526 4.48415 12.9089 4.79864 12.7327V12.7327C5.1078 12.5523 5.47621 12.5028 5.82198 12.5954C6.16776 12.6879 6.46224 12.9147 6.63998 13.2254C6.75653 13.4218 6.81915 13.6454 6.82152 13.8738V13.8738C6.82152 14.6222 7.42821 15.2288 8.1766 15.2288H9.06485C9.81071 15.2288 10.4164 14.6261 10.4199 13.8803V13.8803C10.4182 13.5203 10.5604 13.1747 10.8149 12.9202C11.0694 12.6657 11.4151 12.5234 11.775 12.5252C12.0028 12.5313 12.2255 12.5936 12.4234 12.7067V12.7067C13.0699 13.0793 13.896 12.859 14.2712 12.214V12.214L14.738 11.4359C14.9187 11.1258 14.9683 10.7564 14.8758 10.4096C14.7833 10.0627 14.5564 9.7671 14.2452 9.58811V9.58811C13.9341 9.40911 13.7072 9.11347 13.6147 8.76664C13.5222 8.41982 13.5718 8.05043 13.7525 7.74028C13.87 7.53513 14.0401 7.36503 14.2452 7.24753V7.24753C14.8864 6.87253 15.1062 6.05128 14.738 5.40619V5.40619V5.3997Z" stroke="#EF7B9C" stroke-linecap="round" stroke-linejoin="round"/>
<ellipse id="Ellipse_737" cx="8.62411" cy="8.42099" rx="1.86728" ry="1.86728" stroke="#EF7B9C" stroke-linecap="round" stroke-linejoin="round"/>
</g>
</g>
</svg>
