<svg width="13" height="12" viewBox="0 0 13 12" fill="none" xmlns="http://www.w3.org/2000/svg">
<g clip-path="url(#clip0_636:19288)">
<path d="M12.0362 1.69667L12.0363 1.6964L12.0289 1.69496L2.85023 -0.0981448L2.84073 -0.1H2.83105C2.59381 -0.1 2.37332 -0.0415961 2.17153 0.0753588C1.97089 0.191651 1.8105 0.348879 1.69169 0.546097C1.57216 0.744506 1.5123 0.961616 1.5123 1.1954V2.68927H1.20605V2.68924L1.20354 2.6893C0.848003 2.69825 0.540391 2.82893 0.285445 3.07899C0.0298374 3.3297 -0.1 3.63331 -0.1 3.98467V10.3602C-0.1 10.7191 0.0292853 11.027 0.285445 11.2783C0.541531 11.5295 0.854603 11.6556 1.21875 11.6556H11.7812C12.1454 11.6556 12.4585 11.5295 12.7146 11.2783C12.9707 11.027 13.1 10.7191 13.1 10.3602V3.01341C13.1 2.91432 13.0885 2.81367 13.0659 2.7116C13.0427 2.60685 12.9995 2.48774 12.9385 2.35521C12.8707 2.20792 12.7566 2.0774 12.603 1.96215C12.4471 1.84524 12.2574 1.7574 12.0362 1.69667ZM2.5248 1.1954C2.5248 1.11219 2.55154 1.04608 2.60475 0.990817C2.65582 0.937781 2.71927 0.906458 2.8003 0.897823L11.5768 2.64145L11.5644 2.65242L11.3658 2.68927H2.5248V1.1954ZM12.0875 10.3602C12.0875 10.4399 12.059 10.508 11.9969 10.5689C11.9347 10.6299 11.8644 10.6586 11.7812 10.6586H1.21875C1.13559 10.6586 1.06533 10.6299 1.00313 10.5689C0.940964 10.508 0.9125 10.4399 0.9125 10.3602V3.98467C0.9125 3.90489 0.940964 3.83687 1.00313 3.77589C1.06533 3.71488 1.13559 3.68621 1.21875 3.68621H11.375C11.6055 3.68621 11.8102 3.64927 11.9865 3.57194C12.0227 3.55604 12.0565 3.53827 12.0875 3.51855V10.3602ZM2.43115 6.27548C2.18049 6.27548 1.96444 6.36478 1.78889 6.54162C1.61394 6.71786 1.525 6.93195 1.525 7.17864C1.525 7.42539 1.61402 7.63793 1.78984 7.81038C1.96558 7.98275 2.18134 8.06935 2.43115 8.06935C2.68091 8.06935 2.89826 7.98282 3.07785 7.8113C3.25818 7.63909 3.35 7.42628 3.35 7.17864C3.35 6.93108 3.25828 6.7167 3.07881 6.54068C2.8994 6.3647 2.68175 6.27548 2.43115 6.27548Z" fill="#F07F9F" stroke="#F07F9F" stroke-width="0.2"/>
</g>
<defs>
<clipPath id="clip0_636:19288">
<rect width="13" height="11.5556" fill="white"/>
</clipPath>
</defs>
</svg>
