<svg width="40" height="18" viewBox="0 0 40 18" fill="none" xmlns="http://www.w3.org/2000/svg">
<mask id="mask0_3461_28064" style="mask-type:alpha" maskUnits="userSpaceOnUse" x="1" y="2" width="14" height="15">
<path fill-rule="evenodd" clip-rule="evenodd" d="M1.5 2.25H14.3854V16.4547H1.5V2.25Z" fill="white"/>
</mask>
<g mask="url(#mask0_3461_28064)">
<path fill-rule="evenodd" clip-rule="evenodd" d="M10.3939 5.32616L4.20248 13.0695C4.09003 13.2102 4.0486 13.3917 4.09003 13.566L4.53786 15.4632L6.53633 15.4382C6.72638 15.4362 6.90196 15.3514 7.01835 15.2067C9.13388 12.5598 13.167 7.51336 13.2814 7.3654C13.3893 7.19048 13.4313 6.94322 13.3748 6.70516C13.3169 6.46119 13.165 6.25404 12.946 6.12187C12.8993 6.08964 11.7913 5.22949 11.7571 5.20253C11.3402 4.86847 10.7319 4.92633 10.3939 5.32616ZM4.14879 16.4549C3.9206 16.4549 3.722 16.2983 3.66874 16.0754L3.13016 13.7929C3.01902 13.32 3.1295 12.8321 3.43266 12.4533L9.62732 4.70538C9.62995 4.70275 9.63192 4.69946 9.63455 4.69683C10.3139 3.88468 11.5423 3.765 12.3709 4.42984C12.4037 4.45549 13.5039 5.31038 13.5039 5.31038C13.9037 5.54843 14.2161 5.9739 14.3345 6.47763C14.4522 6.9761 14.3667 7.49035 14.0925 7.92502C14.0721 7.95725 14.0543 7.98487 7.78865 15.8235C7.48681 16.1997 7.03437 16.4187 6.5484 16.4246L4.15537 16.4549H4.14879Z" fill="#EF7A9B"/>
</g>
<path fill-rule="evenodd" clip-rule="evenodd" d="M12.4601 10C12.345 10 12.23 9.96413 12.1315 9.89099L8.21066 6.94548C7.97478 6.76824 7.9302 6.43768 8.11142 6.20559C8.29337 5.9749 8.63137 5.93199 8.86797 6.10923L12.7895 9.05403C13.0254 9.23127 13.0699 9.56253 12.888 9.79393C12.7823 9.92896 12.6219 10 12.4601 10Z" fill="#EF7A9B"/>
<path d="M24.8535 11.1914H21.3496V13.8164H25.4453V15H19.8672V6.46875H25.4043V7.66406H21.3496V10.0195H24.8535V11.1914ZM26.1309 11.7832C26.1309 10.8066 26.3574 10.0234 26.8105 9.43359C27.2637 8.83984 27.8711 8.54297 28.6328 8.54297C29.3047 8.54297 29.8477 8.77734 30.2617 9.24609V6H31.6855V15H30.3965L30.3262 14.3438C29.9004 14.8594 29.332 15.1172 28.6211 15.1172C27.8789 15.1172 27.2773 14.8184 26.8164 14.2207C26.3594 13.623 26.1309 12.8105 26.1309 11.7832ZM27.5547 11.9062C27.5547 12.5508 27.6777 13.0547 27.9238 13.418C28.1738 13.7773 28.5273 13.957 28.9844 13.957C29.5664 13.957 29.9922 13.6973 30.2617 13.1777V10.4707C30 9.96289 29.5781 9.70898 28.9961 9.70898C28.5352 9.70898 28.1797 9.89258 27.9297 10.2598C27.6797 10.623 27.5547 11.1719 27.5547 11.9062ZM34.6855 15H33.2617V8.66016H34.6855V15ZM33.1738 7.01367C33.1738 6.79492 33.2422 6.61328 33.3789 6.46875C33.5195 6.32422 33.7188 6.25195 33.9766 6.25195C34.2344 6.25195 34.4336 6.32422 34.5742 6.46875C34.7148 6.61328 34.7852 6.79492 34.7852 7.01367C34.7852 7.22852 34.7148 7.4082 34.5742 7.55273C34.4336 7.69336 34.2344 7.76367 33.9766 7.76367C33.7188 7.76367 33.5195 7.69336 33.3789 7.55273C33.2422 7.4082 33.1738 7.22852 33.1738 7.01367ZM38.0254 7.11914V8.66016H39.1445V9.71484H38.0254V13.2539C38.0254 13.4961 38.0723 13.6719 38.166 13.7812C38.2637 13.8867 38.4355 13.9395 38.6816 13.9395C38.8457 13.9395 39.0117 13.9199 39.1797 13.8809V14.9824C38.8555 15.0723 38.543 15.1172 38.2422 15.1172C37.1484 15.1172 36.6016 14.5137 36.6016 13.3066V9.71484H35.5586V8.66016H36.6016V7.11914H38.0254Z" fill="#EF7A9B"/>
</svg>
